<?xml version="1.0" encoding="utf-8" standalone="no"?>
<!DOCTYPE svg PUBLIC "-//W3C//DTD SVG 1.1//EN"
  "http://www.w3.org/Graphics/SVG/1.1/DTD/svg11.dtd">
<svg xmlns:xlink="http://www.w3.org/1999/xlink" width="721.88375pt" height="492.1475pt" viewBox="0 0 721.88375 492.1475" xmlns="http://www.w3.org/2000/svg" version="1.1">
 <metadata>
  <rdf:RDF xmlns:dc="http://purl.org/dc/elements/1.1/" xmlns:cc="http://creativecommons.org/ns#" xmlns:rdf="http://www.w3.org/1999/02/22-rdf-syntax-ns#">
   <cc:Work>
    <dc:type rdf:resource="http://purl.org/dc/dcmitype/StillImage"/>
    <dc:date>2025-08-19T13:35:01.618806</dc:date>
    <dc:format>image/svg+xml</dc:format>
    <dc:creator>
     <cc:Agent>
      <dc:title>Matplotlib v3.7.0, https://matplotlib.org/</dc:title>
     </cc:Agent>
    </dc:creator>
   </cc:Work>
  </rdf:RDF>
 </metadata>
 <defs>
  <style type="text/css">*{stroke-linejoin: round; stroke-linecap: butt}</style>
 </defs>
 <g id="figure_1">
  <g id="patch_1">
   <path d="M 0 492.1475 
L 721.88375 492.1475 
L 721.88375 0 
L 0 0 
z
" style="fill: #ffffff"/>
  </g>
  <g id="axes_1">
   <g id="patch_2">
    <path d="M 45.08375 450.72 
L 714.68375 450.72 
L 714.68375 7.2 
L 45.08375 7.2 
z
" style="fill: #ffffff"/>
   </g>
   <g id="matplotlib.axis_1">
    <g id="xtick_1">
     <g id="line2d_1">
      <defs>
       <path id="m1d7853d5f9" d="M 0 0 
L 0 3.5 
" style="stroke: #000000; stroke-width: 0.8"/>
      </defs>
      <g>
       <use xlink:href="#m1d7853d5f9" x="75.520114" y="450.72" style="stroke: #000000; stroke-width: 0.8"/>
      </g>
     </g>
     <g id="text_1">
      <text style="font: 12px 'DejaVu Sans', 'Bitstream Vera Sans', 'Computer Modern Sans Serif', 'Lucida Grande', 'Verdana', 'Geneva', 'Lucid', 'Arial', 'Helvetica', 'Avant Garde', sans-serif; text-anchor: middle" x="75.520114" y="466.838125" transform="rotate(-0 75.520114 466.838125)">0</text>
     </g>
    </g>
    <g id="xtick_2">
     <g id="line2d_2">
      <g>
       <use xlink:href="#m1d7853d5f9" x="177.008489" y="450.72" style="stroke: #000000; stroke-width: 0.8"/>
      </g>
     </g>
     <g id="text_2">
      <text style="font: 12px 'DejaVu Sans', 'Bitstream Vera Sans', 'Computer Modern Sans Serif', 'Lucida Grande', 'Verdana', 'Geneva', 'Lucid', 'Arial', 'Helvetica', 'Avant Garde', sans-serif; text-anchor: middle" x="177.008489" y="466.838125" transform="rotate(-0 177.008489 466.838125)">500</text>
     </g>
    </g>
    <g id="xtick_3">
     <g id="line2d_3">
      <g>
       <use xlink:href="#m1d7853d5f9" x="278.496863" y="450.72" style="stroke: #000000; stroke-width: 0.8"/>
      </g>
     </g>
     <g id="text_3">
      <text style="font: 12px 'DejaVu Sans', 'Bitstream Vera Sans', 'Computer Modern Sans Serif', 'Lucida Grande', 'Verdana', 'Geneva', 'Lucid', 'Arial', 'Helvetica', 'Avant Garde', sans-serif; text-anchor: middle" x="278.496863" y="466.838125" transform="rotate(-0 278.496863 466.838125)">1000</text>
     </g>
    </g>
    <g id="xtick_4">
     <g id="line2d_4">
      <g>
       <use xlink:href="#m1d7853d5f9" x="379.985238" y="450.72" style="stroke: #000000; stroke-width: 0.8"/>
      </g>
     </g>
     <g id="text_4">
      <text style="font: 12px 'DejaVu Sans', 'Bitstream Vera Sans', 'Computer Modern Sans Serif', 'Lucida Grande', 'Verdana', 'Geneva', 'Lucid', 'Arial', 'Helvetica', 'Avant Garde', sans-serif; text-anchor: middle" x="379.985238" y="466.838125" transform="rotate(-0 379.985238 466.838125)">1500</text>
     </g>
    </g>
    <g id="xtick_5">
     <g id="line2d_5">
      <g>
       <use xlink:href="#m1d7853d5f9" x="481.473613" y="450.72" style="stroke: #000000; stroke-width: 0.8"/>
      </g>
     </g>
     <g id="text_5">
      <text style="font: 12px 'DejaVu Sans', 'Bitstream Vera Sans', 'Computer Modern Sans Serif', 'Lucida Grande', 'Verdana', 'Geneva', 'Lucid', 'Arial', 'Helvetica', 'Avant Garde', sans-serif; text-anchor: middle" x="481.473613" y="466.838125" transform="rotate(-0 481.473613 466.838125)">2000</text>
     </g>
    </g>
    <g id="xtick_6">
     <g id="line2d_6">
      <g>
       <use xlink:href="#m1d7853d5f9" x="582.961988" y="450.72" style="stroke: #000000; stroke-width: 0.8"/>
      </g>
     </g>
     <g id="text_6">
      <text style="font: 12px 'DejaVu Sans', 'Bitstream Vera Sans', 'Computer Modern Sans Serif', 'Lucida Grande', 'Verdana', 'Geneva', 'Lucid', 'Arial', 'Helvetica', 'Avant Garde', sans-serif; text-anchor: middle" x="582.961988" y="466.838125" transform="rotate(-0 582.961988 466.838125)">2500</text>
     </g>
    </g>
    <g id="xtick_7">
     <g id="line2d_7">
      <g>
       <use xlink:href="#m1d7853d5f9" x="684.450363" y="450.72" style="stroke: #000000; stroke-width: 0.8"/>
      </g>
     </g>
     <g id="text_7">
      <text style="font: 12px 'DejaVu Sans', 'Bitstream Vera Sans', 'Computer Modern Sans Serif', 'Lucida Grande', 'Verdana', 'Geneva', 'Lucid', 'Arial', 'Helvetica', 'Avant Garde', sans-serif; text-anchor: middle" x="684.450363" y="466.838125" transform="rotate(-0 684.450363 466.838125)">3000</text>
     </g>
    </g>
    <g id="text_8">
     <text style="font: 12px 'DejaVu Sans', 'Bitstream Vera Sans', 'Computer Modern Sans Serif', 'Lucida Grande', 'Verdana', 'Geneva', 'Lucid', 'Arial', 'Helvetica', 'Avant Garde', sans-serif; text-anchor: middle" x="379.88375" y="482.451875" transform="rotate(-0 379.88375 482.451875)">MC Cycle</text>
    </g>
   </g>
   <g id="matplotlib.axis_2">
    <g id="ytick_1">
     <g id="line2d_8">
      <defs>
       <path id="m46814fd382" d="M 0 0 
L -3.5 0 
" style="stroke: #000000; stroke-width: 0.8"/>
      </defs>
      <g>
       <use xlink:href="#m46814fd382" x="45.08375" y="364.086036" style="stroke: #000000; stroke-width: 0.8"/>
      </g>
     </g>
     <g id="text_9">
      <text style="font: 12px 'DejaVu Sans', 'Bitstream Vera Sans', 'Computer Modern Sans Serif', 'Lucida Grande', 'Verdana', 'Geneva', 'Lucid', 'Arial', 'Helvetica', 'Avant Garde', sans-serif; text-anchor: end" x="38.08375" y="368.645099" transform="rotate(-0 38.08375 368.645099)">5</text>
     </g>
    </g>
    <g id="ytick_2">
     <g id="line2d_9">
      <g>
       <use xlink:href="#m46814fd382" x="45.08375" y="273.307671" style="stroke: #000000; stroke-width: 0.8"/>
      </g>
     </g>
     <g id="text_10">
      <text style="font: 12px 'DejaVu Sans', 'Bitstream Vera Sans', 'Computer Modern Sans Serif', 'Lucida Grande', 'Verdana', 'Geneva', 'Lucid', 'Arial', 'Helvetica', 'Avant Garde', sans-serif; text-anchor: end" x="38.08375" y="277.866733" transform="rotate(-0 38.08375 277.866733)">10</text>
     </g>
    </g>
    <g id="ytick_3">
     <g id="line2d_10">
      <g>
       <use xlink:href="#m46814fd382" x="45.08375" y="182.529305" style="stroke: #000000; stroke-width: 0.8"/>
      </g>
     </g>
     <g id="text_11">
      <text style="font: 12px 'DejaVu Sans', 'Bitstream Vera Sans', 'Computer Modern Sans Serif', 'Lucida Grande', 'Verdana', 'Geneva', 'Lucid', 'Arial', 'Helvetica', 'Avant Garde', sans-serif; text-anchor: end" x="38.08375" y="187.088368" transform="rotate(-0 38.08375 187.088368)">15</text>
     </g>
    </g>
    <g id="ytick_4">
     <g id="line2d_11">
      <g>
       <use xlink:href="#m46814fd382" x="45.08375" y="91.75094" style="stroke: #000000; stroke-width: 0.8"/>
      </g>
     </g>
     <g id="text_12">
      <text style="font: 12px 'DejaVu Sans', 'Bitstream Vera Sans', 'Computer Modern Sans Serif', 'Lucida Grande', 'Verdana', 'Geneva', 'Lucid', 'Arial', 'Helvetica', 'Avant Garde', sans-serif; text-anchor: end" x="38.08375" y="96.310002" transform="rotate(-0 38.08375 96.310002)">20</text>
     </g>
    </g>
    <g id="text_13">
     <text style="font: 12px 'DejaVu Sans', 'Bitstream Vera Sans', 'Computer Modern Sans Serif', 'Lucida Grande', 'Verdana', 'Geneva', 'Lucid', 'Arial', 'Helvetica', 'Avant Garde', sans-serif; text-anchor: middle" x="16.318125" y="228.96" transform="rotate(-90 16.318125 228.96)">Mode Gap</text>
    </g>
   </g>
   <g id="line2d_12">
    <path d="M 75.520114 426.990267 
L 75.926067 427.002412 
L 76.940951 426.785837 
L 77.346904 426.894897 
L 78.564765 426.831317 
L 78.767742 426.751051 
L 78.970718 426.944169 
L 79.376672 426.888084 
L 79.579649 427.45241 
L 79.782625 427.449621 
L 80.188579 427.577751 
L 81.000486 427.577063 
L 82.01537 427.62757 
L 82.421323 427.750678 
L 83.030253 427.734065 
L 83.23323 427.609267 
L 83.436207 427.795092 
L 84.451091 427.792697 
L 85.871928 427.79891 
L 86.683835 427.698589 
L 87.089788 427.672888 
L 87.495742 427.726888 
L 87.901695 427.659781 
L 88.510626 427.652893 
L 88.713602 427.854425 
L 90.74337 427.768522 
L 95.614812 427.75994 
L 95.817789 427.531774 
L 103.530905 427.5785 
L 103.936859 427.512217 
L 104.748766 427.598042 
L 105.154719 427.602961 
L 105.966626 427.485217 
L 106.169603 427.138681 
L 106.778533 427.211606 
L 108.19937 426.948341 
L 108.808301 426.975252 
L 109.620208 426.918572 
L 109.823184 427.227304 
L 110.635091 427.271757 
L 111.041045 427.421209 
L 113.882719 427.414942 
L 114.085696 427.156516 
L 114.49165 427.108451 
L 114.694626 427.456587 
L 115.303557 427.507841 
L 116.115464 427.551346 
L 119.160115 427.549177 
L 119.363092 427.224768 
L 119.972022 427.133615 
L 120.986906 427.14557 
L 121.392859 427.0414 
L 121.798813 427.023774 
L 122.001789 427.256491 
L 124.640487 427.31762 
L 125.249417 427.347983 
L 125.452394 427.476734 
L 126.061324 427.487883 
L 129.511929 427.583782 
L 130.120859 427.717234 
L 130.526813 427.561985 
L 133.165511 427.539703 
L 133.977418 427.478456 
L 135.195278 427.487253 
L 135.398255 427.337643 
L 136.413139 427.324962 
L 136.616115 427.056251 
L 137.022069 427.222806 
L 137.833976 427.099186 
L 138.239929 426.994363 
L 138.645883 426.899713 
L 141.284581 426.814229 
L 141.690534 426.875613 
L 142.705418 426.829862 
L 143.111371 426.76904 
L 144.532209 426.775147 
L 144.938162 426.682026 
L 146.156023 426.764384 
L 146.96793 426.823133 
L 150.012581 426.923862 
L 150.215558 427.118225 
L 151.433418 427.143162 
L 151.636395 426.856939 
L 152.245325 426.802815 
L 152.448302 426.63011 
L 154.478069 426.621701 
L 157.522721 426.224516 
L 158.740581 426.194495 
L 158.943558 426.419299 
L 159.552488 426.382743 
L 159.958442 426.255681 
L 160.973325 426.421655 
L 165.438814 426.425188 
L 165.641791 426.934261 
L 169.295372 426.896032 
L 169.498349 426.618572 
L 170.716209 426.535831 
L 171.122163 426.492588 
L 172.137047 426.618564 
L 172.340023 426.807153 
L 172.543 426.807153 
L 172.745977 426.644931 
L 177.617419 426.746581 
L 178.429326 426.77807 
L 179.241233 426.536116 
L 180.256117 426.543409 
L 180.459093 426.701636 
L 181.068024 426.625159 
L 183.300768 426.669591 
L 183.909698 426.871437 
L 184.518628 426.873859 
L 184.721605 426.789842 
L 185.127559 426.948837 
L 186.345419 426.919702 
L 187.360303 426.940699 
L 187.766256 426.757512 
L 188.78114 426.725579 
L 189.187094 426.822038 
L 191.419838 426.91669 
L 191.622815 426.942986 
L 192.028768 426.848653 
L 192.231745 426.848653 
L 192.637698 426.71773 
L 192.840675 426.71773 
L 193.043652 426.998416 
L 193.449605 426.914567 
L 194.058536 426.952777 
L 194.667466 426.980922 
L 194.870443 427.159514 
L 195.073419 426.966896 
L 196.29128 427.067553 
L 196.697233 426.970288 
L 198.727001 427.061019 
L 198.929978 426.521142 
L 199.335931 426.470736 
L 202.583559 426.438646 
L 202.786536 426.289926 
L 205.425234 426.302878 
L 205.62821 426.461091 
L 207.049048 426.485225 
L 207.252024 426.993433 
L 207.657978 427.061886 
L 209.687745 427.064742 
L 209.890722 427.136859 
L 210.905606 426.973316 
L 211.108583 426.973316 
L 211.514536 426.851151 
L 214.153234 426.805834 
L 214.559187 426.707688 
L 214.762164 426.755247 
L 215.371094 426.567185 
L 217.400862 426.667998 
L 218.009792 426.715613 
L 218.212769 426.644733 
L 218.415746 426.904457 
L 219.633606 426.919217 
L 220.03956 426.780182 
L 220.445513 426.856501 
L 221.460397 426.824371 
L 222.069327 426.878279 
L 222.678257 426.83891 
L 223.084211 426.669652 
L 223.693141 426.661966 
L 223.896118 427.820595 
L 224.505048 427.736605 
L 225.113978 427.644229 
L 225.316955 427.119212 
L 225.925885 427.388232 
L 226.534816 427.357597 
L 226.940769 427.263666 
L 229.37649 427.178934 
L 229.782444 427.091121 
L 231.000304 427.002612 
L 231.406258 426.827539 
L 232.015188 426.72799 
L 232.421141 426.672446 
L 232.624118 426.729543 
L 232.827095 426.643904 
L 233.436025 426.718289 
L 234.044955 426.73509 
L 234.247932 426.841993 
L 234.856862 426.500354 
L 235.059839 426.565854 
L 235.262816 426.460528 
L 235.465792 426.646091 
L 235.871746 426.491129 
L 236.480676 426.320627 
L 237.089606 426.362918 
L 237.698537 426.355359 
L 237.901513 426.208016 
L 238.307467 426.19124 
L 238.510444 425.93527 
L 239.119374 425.914701 
L 239.322351 425.668719 
L 239.728304 425.758996 
L 248.456304 425.628815 
L 248.862258 425.526151 
L 249.471188 425.608913 
L 250.080118 425.608913 
L 250.283095 425.468468 
L 250.486072 425.47685 
L 250.689049 425.614937 
L 250.892025 425.183228 
L 253.530723 425.159989 
L 253.7337 425.003947 
L 254.139653 424.901176 
L 254.545607 424.725748 
L 255.154537 424.822999 
L 256.169421 424.983807 
L 256.372398 424.910808 
L 256.575374 424.576288 
L 256.778351 424.723123 
L 257.387281 424.728276 
L 257.793235 424.606189 
L 257.996212 424.847932 
L 258.402165 424.732049 
L 259.214072 424.714085 
L 259.417049 424.901297 
L 259.620026 424.747712 
L 260.431933 424.739114 
L 260.634909 424.896153 
L 263.679561 424.877668 
L 263.882537 424.475929 
L 264.085514 424.500483 
L 264.288491 425.004464 
L 264.694444 424.914409 
L 265.709328 424.933667 
L 266.115282 425.060476 
L 267.333142 425.104942 
L 268.753979 425.019501 
L 269.36291 424.980097 
L 274.640305 424.919376 
L 274.843282 424.552818 
L 279.714724 424.50622 
L 279.917701 424.253677 
L 280.120677 424.253677 
L 280.323654 423.963494 
L 282.353422 423.970205 
L 282.556398 423.829548 
L 283.774259 423.823394 
L 284.586166 423.714848 
L 285.195096 423.720413 
L 285.398073 423.525522 
L 287.630817 423.473594 
L 287.833794 423.473594 
L 288.239747 423.216588 
L 289.051654 423.200444 
L 289.254631 423.039592 
L 290.066538 423.082121 
L 290.472492 422.999135 
L 290.878445 423.058473 
L 291.081422 422.840985 
L 291.487375 422.840985 
L 291.893329 423.144943 
L 293.923096 423.141061 
L 295.54691 423.384897 
L 296.764771 423.334142 
L 297.170724 423.403385 
L 298.388585 423.414964 
L 298.591562 423.275813 
L 303.05705 423.2447 
L 303.463004 423.146782 
L 304.883841 423.086345 
L 305.289794 423.038802 
L 305.898725 423.134313 
L 306.304678 423.204277 
L 306.507655 423.263061 
L 306.913608 423.170753 
L 309.146353 423.113278 
L 309.349329 422.924882 
L 309.552306 422.171582 
L 309.95826 422.171582 
L 310.161236 421.839573 
L 310.364213 421.950469 
L 310.770167 421.85561 
L 312.596957 421.82172 
L 312.799934 421.607578 
L 314.220771 421.534256 
L 314.829702 421.311523 
L 315.032678 421.637651 
L 315.641609 421.684599 
L 315.844585 421.994052 
L 318.483283 421.933586 
L 318.68626 421.710925 
L 322.136865 421.853026 
L 322.339841 420.648634 
L 325.790446 420.678735 
L 325.993423 421.178606 
L 326.602353 421.175662 
L 326.80533 420.96926 
L 327.41426 420.981981 
L 327.617237 420.516518 
L 327.820214 420.516518 
L 328.226167 420.400756 
L 330.052958 420.384195 
L 333.706539 420.296333 
L 333.909516 420.113191 
L 336.14226 420.160791 
L 336.345237 419.966211 
L 337.157144 419.950126 
L 337.563098 419.860367 
L 338.172028 419.886502 
L 338.375005 419.488631 
L 340.201795 419.512495 
L 340.404772 419.677856 
L 342.231563 419.661684 
L 342.43454 420.227569 
L 343.04347 420.232728 
L 343.449423 420.110964 
L 346.088121 420.037726 
L 346.291098 419.957612 
L 346.494075 420.129301 
L 347.508958 420.148228 
L 347.711935 419.808425 
L 348.117889 419.897968 
L 348.320865 420.080713 
L 350.756586 420.027486 
L 351.568493 420.035056 
L 351.974447 419.928972 
L 352.786354 419.953823 
L 352.989331 419.838318 
L 353.395284 419.969257 
L 353.801238 419.966233 
L 354.004214 419.780526 
L 355.222075 419.73663 
L 356.033982 419.816895 
L 356.236959 419.527437 
L 356.439935 419.530429 
L 356.642912 419.130252 
L 357.657796 419.050671 
L 357.860773 419.376165 
L 358.063749 419.235138 
L 358.875656 419.266073 
L 359.28161 419.175298 
L 360.093517 419.005556 
L 360.905424 419.194667 
L 361.108401 419.355235 
L 361.717331 419.386224 
L 361.920308 419.043617 
L 362.935191 419.078403 
L 363.138168 418.515166 
L 364.761982 418.214464 
L 365.370912 418.141341 
L 366.79175 418.184358 
L 366.994726 417.848414 
L 367.40068 417.827137 
L 367.603657 417.986839 
L 368.61854 417.814616 
L 368.821517 417.463502 
L 369.227471 417.360596 
L 371.460215 417.403167 
L 371.663192 417.571176 
L 372.881052 417.527095 
L 373.084029 417.271505 
L 375.113796 417.387486 
L 375.316773 417.021936 
L 381.203099 417.048761 
L 381.406076 416.830499 
L 383.841797 416.79598 
L 384.044773 417.292667 
L 384.24775 417.292667 
L 384.450727 416.083703 
L 386.480494 415.994001 
L 386.886448 415.705598 
L 387.901332 415.700768 
L 388.307285 416.11032 
L 388.713239 416.11032 
L 388.916215 416.295968 
L 389.728122 416.234224 
L 389.931099 415.137903 
L 391.351936 415.088468 
L 391.75789 415.005478 
L 392.569797 414.987756 
L 392.97575 415.29781 
L 393.381704 415.220298 
L 393.787657 415.205331 
L 393.990634 414.99231 
L 395.614448 414.934243 
L 395.817425 414.405124 
L 396.020402 414.405124 
L 396.223378 414.570036 
L 396.426355 414.369151 
L 397.441239 414.351865 
L 397.644216 414.583007 
L 398.253146 414.543848 
L 398.456123 414.29561 
L 400.282913 414.326592 
L 400.48589 414.046706 
L 400.688867 414.137069 
L 400.891844 413.919463 
L 401.09482 413.427874 
L 401.906727 413.373337 
L 402.109704 413.281464 
L 402.312681 413.392117 
L 402.515658 413.054674 
L 403.327565 413.037988 
L 403.530541 412.384387 
L 404.139472 412.384387 
L 404.545425 412.552718 
L 406.169239 412.547061 
L 406.372216 412.413205 
L 406.575193 412.137549 
L 407.793053 412.142947 
L 407.99603 411.923923 
L 409.010914 411.937901 
L 409.21389 411.400962 
L 409.619844 411.319286 
L 409.822821 411.319286 
L 410.025797 411.172717 
L 412.055565 411.068268 
L 413.476402 410.949919 
L 415.50617 410.942999 
L 415.709146 410.026545 
L 416.72403 409.921245 
L 417.33296 409.920041 
L 417.738914 409.842071 
L 418.347844 409.469968 
L 419.159751 409.444755 
L 420.174635 409.432218 
L 420.377612 409.693083 
L 422.204402 409.790549 
L 423.016309 410.024446 
L 423.219286 410.209426 
L 423.828216 410.221361 
L 424.031193 410.80705 
L 425.249054 410.788048 
L 426.060961 410.788048 
L 426.466914 410.588463 
L 429.105612 410.489732 
L 430.729426 410.391117 
L 430.932403 410.531099 
L 432.150263 410.547835 
L 432.35324 410.332043 
L 432.556217 410.332043 
L 432.759193 409.273545 
L 434.180031 409.349563 
L 434.383007 409.406011 
L 434.788961 409.286464 
L 435.194914 409.286464 
L 435.397891 408.898227 
L 436.006821 408.912376 
L 436.209798 408.769466 
L 436.615752 408.669719 
L 438.442542 408.612119 
L 438.645519 408.818393 
L 439.051473 408.818393 
L 439.254449 408.461889 
L 439.457426 408.461889 
L 440.066356 407.909221 
L 440.675287 407.922189 
L 440.878263 408.165031 
L 441.08124 408.066217 
L 441.284217 407.760358 
L 441.893147 407.78955 
L 442.299101 407.377591 
L 443.313984 407.377591 
L 443.516961 407.085411 
L 443.922915 407.085411 
L 444.125891 407.253892 
L 445.546729 407.062021 
L 445.749705 406.84647 
L 447.373519 406.93543 
L 447.576496 407.048083 
L 447.779473 406.732619 
L 448.185426 406.732619 
L 448.59138 406.17304 
L 451.027101 406.048315 
L 451.230078 405.208361 
L 452.041985 405.484431 
L 452.447938 405.606475 
L 452.650915 405.052505 
L 453.056868 405.052505 
L 453.259845 404.653291 
L 453.868775 404.570902 
L 454.071752 404.570902 
L 454.274729 404.349558 
L 454.883659 404.308682 
L 455.492589 404.304973 
L 455.695566 403.893937 
L 456.10152 403.844747 
L 456.304496 404.036051 
L 457.116403 404.036051 
L 457.31938 403.553427 
L 457.92831 403.553427 
L 458.131287 403.354364 
L 458.537241 403.354364 
L 458.740217 403.077371 
L 459.958078 403.029191 
L 460.567008 402.877093 
L 461.175938 402.877093 
L 461.378915 402.386324 
L 461.987845 402.388743 
L 462.393799 402.516049 
L 462.596776 402.295583 
L 466.656311 402.399809 
L 467.468218 402.428336 
L 468.889055 402.428336 
L 469.092032 401.934831 
L 469.497985 401.933086 
L 469.700962 402.213272 
L 469.903939 402.078099 
L 470.106915 398.888413 
L 471.527753 398.929239 
L 471.730729 398.38455 
L 473.354543 398.286186 
L 473.55752 398.651142 
L 474.775381 398.678013 
L 475.181334 398.556314 
L 475.384311 398.999318 
L 476.399195 398.999318 
L 476.602171 397.369129 
L 477.820032 397.350907 
L 478.023009 391.612778 
L 478.225985 391.133513 
L 478.631939 391.059503 
L 478.834916 391.059503 
L 479.037892 390.696224 
L 479.849799 390.696224 
L 480.052776 390.419492 
L 481.270637 390.358883 
L 481.473613 390.168311 
L 481.67659 388.326 
L 482.691474 388.215346 
L 482.894451 387.25773 
L 483.503381 387.252083 
L 483.909334 386.916781 
L 484.112311 386.386755 
L 484.315288 383.861914 
L 484.518265 383.861914 
L 484.721241 383.496882 
L 485.127195 383.496882 
L 485.330172 383.271441 
L 485.533148 383.271441 
L 485.736125 381.203753 
L 486.548032 381.194228 
L 486.751009 380.852752 
L 487.562916 380.803132 
L 487.765893 379.217336 
L 488.374823 379.217336 
L 488.5778 378.696916 
L 488.983753 378.696916 
L 489.18673 378.513348 
L 489.389707 378.513348 
L 489.592683 377.765313 
L 489.998637 377.861414 
L 490.607567 377.83435 
L 490.810544 376.733767 
L 492.028404 376.719576 
L 492.231381 376.030174 
L 492.434358 376.030174 
L 492.637335 375.747804 
L 494.464125 375.789623 
L 494.870079 375.892884 
L 495.884963 375.968675 
L 496.087939 375.641013 
L 496.290916 375.023841 
L 496.899846 375.023841 
L 497.102823 373.221855 
L 498.320684 373.126378 
L 498.726637 371.944277 
L 499.741521 371.944277 
L 499.944498 371.827737 
L 500.147474 371.429789 
L 501.365335 371.429789 
L 501.568312 371.115051 
L 502.177242 371.115051 
L 502.380219 369.224317 
L 502.583195 369.224317 
L 502.786172 369.037727 
L 505.018916 369.037727 
L 505.221893 368.441636 
L 505.42487 368.441636 
L 505.830823 365.508497 
L 506.439754 365.569909 
L 506.64273 363.647849 
L 507.251661 363.647849 
L 507.454637 359.320034 
L 508.672498 359.273844 
L 509.078451 359.152246 
L 511.717149 359.152246 
L 511.920126 358.882822 
L 513.949893 358.882822 
L 514.15287 358.669606 
L 518.212405 358.678433 
L 518.415382 358.378291 
L 521.460033 358.388491 
L 521.66301 357.784305 
L 522.677894 357.784305 
L 522.88087 357.528689 
L 524.707661 357.528689 
L 524.910638 357.663389 
L 531.202917 357.59121 
L 531.405894 357.934873 
L 532.623754 357.92293 
L 532.826731 358.506235 
L 534.044591 358.506235 
L 534.247568 357.761142 
L 535.465429 357.748359 
L 535.668405 350.590579 
L 535.871382 350.267842 
L 536.277336 350.267842 
L 536.480312 350.132087 
L 536.683289 349.597891 
L 537.698173 349.597891 
L 537.90115 347.939646 
L 540.336871 347.92153 
L 540.539847 347.524029 
L 546.426173 347.429586 
L 546.62915 324.176058 
L 546.832127 323.59298 
L 547.644034 323.59298 
L 547.84701 322.898614 
L 548.455941 322.898614 
L 548.658917 322.66591 
L 549.267848 322.626205 
L 549.876778 322.626205 
L 550.079755 319.928174 
L 550.282731 281.303489 
L 550.485708 281.108413 
L 550.688685 280.390241 
L 550.891662 280.642209 
L 551.297615 280.642209 
L 551.500592 267.940387 
L 552.109522 267.940387 
L 552.312499 257.618462 
L 552.515476 257.618462 
L 552.718452 228.559044 
L 553.327383 228.559044 
L 553.530359 227.501534 
L 553.936313 227.501534 
L 554.13929 225.448294 
L 554.342266 225.448294 
L 554.545243 223.495205 
L 554.74822 223.495205 
L 554.951197 223.262989 
L 557.183941 223.262989 
L 557.386918 219.724474 
L 559.010732 219.724474 
L 559.213708 218.625354 
L 563.679197 218.625354 
L 563.882174 218.790899 
L 566.520871 218.790899 
L 566.723848 217.102233 
L 569.768499 217.102233 
L 569.971476 217.394277 
L 573.016127 217.394277 
L 573.219104 217.212538 
L 573.422081 205.932955 
L 574.436965 205.932955 
L 574.639941 202.802684 
L 575.045895 202.802684 
L 575.248872 200.093483 
L 576.060779 200.093483 
L 576.263755 198.219613 
L 577.278639 198.219613 
L 577.481616 196.144157 
L 577.887569 196.144157 
L 578.090546 192.066804 
L 578.699476 192.066804 
L 578.902453 188.305504 
L 581.135197 188.36477 
L 581.338174 185.603524 
L 581.541151 185.603524 
L 581.744128 174.911499 
L 582.150081 174.911499 
L 582.353058 175.201037 
L 582.556035 175.201037 
L 582.759011 171.573448 
L 582.961988 171.573448 
L 583.164965 172.303987 
L 585.397709 172.303987 
L 585.600686 157.701041 
L 585.803663 152.867844 
L 586.209616 152.867844 
L 586.61557 142.345826 
L 587.2245 142.345826 
L 587.427477 140.117433 
L 587.630453 140.117433 
L 587.83343 135.598101 
L 588.036407 135.375701 
L 588.239384 135.375701 
L 588.44236 134.413268 
L 589.051291 134.413268 
L 589.254267 128.660042 
L 589.660221 128.660042 
L 589.863198 118.221839 
L 593.110826 118.221839 
L 593.313802 118.052085 
L 595.34357 118.052085 
L 595.546547 118.605776 
L 595.9525 118.712945 
L 596.764407 118.712945 
L 596.967384 103.379527 
L 597.170361 103.379527 
L 597.373337 73.783744 
L 597.576314 68.497627 
L 599.403105 68.497627 
L 599.606082 54.145733 
L 600.823942 54.145733 
L 601.026919 56.681644 
L 604.6805 56.681644 
L 604.883477 55.610516 
L 605.695384 55.610516 
L 605.898361 58.992651 
L 607.319198 58.992651 
L 607.522175 52.543658 
L 607.928128 52.543658 
L 608.131105 49.115276 
L 610.769803 49.115276 
L 610.97278 50.013337 
L 615.032315 50.025609 
L 615.235291 44.216337 
L 621.121617 44.216337 
L 621.324594 44.807009 
L 633.503199 44.807009 
L 633.706176 41.189554 
L 638.780594 41.189554 
L 638.983571 39.46213 
L 641.419292 39.46213 
L 641.622269 37.334764 
L 643.652036 37.334764 
L 643.855013 33.942798 
L 645.884781 33.942798 
L 646.087757 27.69223 
L 648.726455 27.69223 
L 648.929432 27.408857 
L 653.597897 27.408857 
L 653.800874 27.840397 
L 654.815758 27.840397 
L 655.018734 27.36 
L 664.761618 27.36 
L 664.964595 28.063028 
L 684.247386 28.063028 
L 684.247386 28.063028 
" clip-path="url(#pca31b4f2e2)" style="fill: none; stroke: #1f77b4; stroke-width: 1.5; stroke-linecap: square"/>
   </g>
   <g id="line2d_13">
    <path d="M 75.520114 426.990267 
L 75.926067 427.002412 
L 76.332021 426.900761 
L 76.534997 427.629093 
L 76.940951 427.555469 
L 77.955835 427.789209 
L 78.361788 427.666557 
L 78.767742 427.606409 
L 80.797509 427.513854 
L 81.000486 427.251474 
L 82.218346 427.304595 
L 82.6243 427.383395 
L 83.639184 427.316858 
L 84.248114 427.344692 
L 85.262998 427.308534 
L 85.465974 427.177278 
L 86.886812 427.120241 
L 87.089788 427.059817 
L 87.292765 426.85453 
L 88.307649 426.84311 
L 88.510626 427.073567 
L 89.119556 427.107905 
L 89.728486 427.137947 
L 90.13444 427.043056 
L 92.570161 427.060564 
L 92.773137 427.379527 
L 96.629696 427.385941 
L 97.238626 427.662117 
L 97.847556 427.648119 
L 98.050533 427.486342 
L 101.907091 427.424466 
L 102.110068 427.557179 
L 102.516021 427.524055 
L 109.417231 427.520659 
L 109.823184 427.663228 
L 116.115464 427.673889 
L 116.521417 427.786192 
L 118.145231 427.858373 
L 118.957138 427.888975 
L 119.769045 427.812096 
L 120.580952 427.792476 
L 120.783929 427.525592 
L 121.798813 427.412143 
L 122.001789 427.289332 
L 124.031557 427.492654 
L 124.843464 427.538858 
L 125.249417 427.466559 
L 125.655371 427.502325 
L 125.858348 427.40569 
L 126.467278 427.457033 
L 127.076208 427.477943 
L 129.714906 427.607347 
L 129.917883 427.75915 
L 132.962534 427.754869 
L 133.368487 427.888236 
L 134.180394 427.920001 
L 134.586348 428.106281 
L 135.804208 428.129788 
L 137.225046 428.037845 
L 138.645883 427.980823 
L 139.051836 427.918102 
L 139.45779 427.823503 
L 139.863743 427.71543 
L 140.67565 427.571399 
L 140.878627 427.981644 
L 146.96793 427.944581 
L 147.57686 427.894083 
L 149.809604 427.896914 
L 153.057232 427.845484 
L 153.463186 427.711411 
L 158.131651 427.433852 
L 158.537604 427.390254 
L 159.146535 427.438819 
L 159.552488 427.39527 
L 160.770349 427.402168 
L 160.973325 427.686318 
L 161.785232 427.714916 
L 162.394163 427.756285 
L 162.597139 427.271088 
L 164.017977 427.226479 
L 164.220953 427.388707 
L 165.844767 427.443315 
L 166.047744 427.721456 
L 171.528116 427.761148 
L 171.731093 427.601732 
L 172.543 427.741952 
L 172.948954 427.851857 
L 175.790628 427.949218 
L 177.211465 427.873414 
L 179.038256 427.88019 
L 179.850163 428.033294 
L 180.05314 428.225806 
L 183.706721 428.091495 
L 184.112675 428.052643 
L 185.330535 428.053501 
L 188.17221 428.10989 
L 188.78114 428.214682 
L 189.187094 428.085729 
L 191.013884 428.167234 
L 191.419838 428.226704 
L 191.825791 428.167036 
L 193.855559 428.180951 
L 194.058536 427.670018 
L 194.464489 427.750943 
L 194.667466 427.748693 
L 194.870443 427.896342 
L 197.712117 427.96456 
L 197.915094 428.173953 
L 199.741885 428.14392 
L 199.944861 428.227266 
L 200.350815 428.167153 
L 200.756768 428.249526 
L 203.395466 428.314941 
L 203.598443 428.202196 
L 204.004396 428.541234 
L 204.207373 428.352806 
L 205.62821 428.340595 
L 206.440117 428.310139 
L 206.643094 428.627427 
L 212.732397 428.625567 
L 212.935373 428.977499 
L 213.341327 429.038617 
L 214.153234 429.106501 
L 214.559187 429.121572 
L 215.168118 429.082039 
L 215.777048 428.909905 
L 217.400862 428.998122 
L 218.009792 429.415283 
L 219.430629 429.423409 
L 219.633606 429.409001 
L 219.836583 429.55802 
L 223.490164 429.592691 
L 223.693141 429.889039 
L 227.752676 430.008582 
L 228.15863 429.891829 
L 229.98542 430.030931 
L 230.594351 430.020041 
L 231.000304 429.851195 
L 232.624118 429.793421 
L 234.247932 429.762269 
L 234.450909 429.563477 
L 235.871746 429.593906 
L 238.510444 429.524895 
L 238.916397 429.321991 
L 243.787839 429.235819 
L 243.990816 429.049728 
L 244.599746 428.979463 
L 244.802723 428.906509 
L 245.208676 429.024858 
L 249.471188 429.012079 
L 249.674165 428.731821 
L 249.877142 428.718179 
L 250.080118 428.910369 
L 250.283095 429.482641 
L 252.312863 429.443289 
L 253.327746 429.356906 
L 254.545607 429.292835 
L 256.372398 429.271334 
L 257.996212 429.318936 
L 258.402165 429.377403 
L 259.011095 429.504636 
L 259.214072 429.227914 
L 261.040863 429.278116 
L 261.446816 429.486178 
L 262.664677 429.5414 
L 262.867654 429.723132 
L 265.100398 429.673233 
L 265.303375 429.386807 
L 267.333142 429.485755 
L 269.36291 429.517056 
L 269.97184 429.48523 
L 270.986724 429.348385 
L 271.1897 429.321569 
L 271.392677 429.538126 
L 272.204584 429.568455 
L 273.625421 429.706057 
L 273.828398 429.912871 
L 276.264119 430.010755 
L 277.887933 430.063341 
L 282.962352 430.11588 
L 283.368305 430.22542 
L 283.571282 430.179926 
L 283.774259 430.298283 
L 283.977236 430.214997 
L 284.586166 430.262644 
L 288.848678 430.067986 
L 289.254631 429.956665 
L 291.284399 429.87817 
L 291.487375 430.069324 
L 293.517143 429.981198 
L 293.72012 430.259874 
L 295.54691 430.252773 
L 295.952864 430.301087 
L 296.358817 430.370463 
L 297.982631 430.204854 
L 299.200492 430.274823 
L 301.230259 430.318713 
L 301.636213 430.232106 
L 302.854073 430.125204 
L 303.463004 430.08063 
L 303.868957 430.138757 
L 304.477887 430.114185 
L 304.680864 430.268214 
L 305.289794 430.319151 
L 305.695748 430.397205 
L 306.710632 430.380247 
L 306.913608 430.56 
L 307.319562 430.5414 
L 307.725515 430.428415 
L 308.334446 430.408462 
L 308.537422 429.905975 
L 311.582074 429.929969 
L 312.191004 429.899228 
L 312.799934 429.870211 
L 315.844585 429.973345 
L 316.047562 429.938306 
L 316.250539 430.197237 
L 316.859469 430.180645 
L 317.265423 430.06934 
L 318.889237 430.129907 
L 319.092213 429.981574 
L 319.90412 430.027261 
L 322.542818 429.998372 
L 322.745795 429.624213 
L 322.948772 429.65628 
L 323.151748 429.461997 
L 324.775562 429.398887 
L 324.978539 429.674917 
L 327.617237 429.814656 
L 328.02319 429.503705 
L 328.226167 429.524855 
L 328.429144 429.199764 
L 330.864865 429.206262 
L 335.736307 429.45008 
L 338.983935 429.406163 
L 339.186912 429.221116 
L 340.404772 429.167019 
L 340.810726 429.138992 
L 342.028586 429.141034 
L 342.231563 429.432434 
L 343.6524 429.427446 
L 344.058354 429.27764 
L 344.26133 429.254731 
L 344.464307 429.049938 
L 345.682168 429.006705 
L 346.088121 428.935707 
L 354.004214 429.077943 
L 354.207191 428.758072 
L 355.019098 428.723527 
L 360.296494 428.686288 
L 360.702447 428.664955 
L 361.311377 428.643971 
L 361.514354 428.489127 
L 362.326261 428.436814 
L 362.529238 428.261048 
L 363.544122 428.154062 
L 363.747098 427.724375 
L 364.153052 427.802624 
L 365.573889 427.763137 
L 367.603657 427.687486 
L 367.806633 427.43543 
L 368.61854 427.439884 
L 368.821517 427.706723 
L 369.633424 427.673242 
L 369.836401 427.975312 
L 370.039378 427.937957 
L 370.445331 428.056741 
L 370.851285 428.106067 
L 371.054261 428.100855 
L 371.460215 428.224237 
L 372.069145 428.320019 
L 372.881052 428.250492 
L 374.301889 428.142044 
L 374.504866 428.161501 
L 374.707843 428.405027 
L 376.331657 428.264248 
L 377.346541 428.043079 
L 377.752494 428.156144 
L 378.158448 427.919429 
L 378.564401 427.970326 
L 378.767378 427.970326 
L 378.970355 427.574559 
L 379.782262 427.597775 
L 380.797145 427.619887 
L 381.609052 427.710305 
L 382.826913 427.697226 
L 383.02989 428.116486 
L 383.841797 428.175095 
L 385.465611 428.289684 
L 385.871564 428.369609 
L 386.277518 428.385035 
L 386.480494 428.073251 
L 386.886448 428.016759 
L 387.292401 427.88175 
L 388.916215 427.870885 
L 389.119192 428.092027 
L 389.728122 428.164879 
L 390.134076 428.059992 
L 393.178727 428.226054 
L 395.411471 428.112651 
L 395.614448 428.294541 
L 400.688867 428.256201 
L 400.891844 428.414583 
L 405.154355 428.385664 
L 405.357332 428.713477 
L 408.199007 428.788055 
L 409.416867 428.92937 
L 410.431751 428.92217 
L 412.867472 428.828857 
L 415.100216 428.698854 
L 415.709146 428.416846 
L 416.1151 428.416038 
L 418.144867 428.485095 
L 418.753798 428.565155 
L 424.23417 428.504422 
L 426.872868 428.42544 
L 428.902635 428.471963 
L 429.105612 428.622541 
L 430.120496 428.624823 
L 430.526449 428.541937 
L 431.541333 428.490129 
L 431.947286 428.505203 
L 432.150263 428.344791 
L 432.35324 428.344791 
L 432.96217 427.992095 
L 434.383007 427.9764 
L 434.585984 428.063003 
L 435.600868 427.841987 
L 437.021705 427.834081 
L 437.427659 427.957881 
L 437.833612 428.055894 
L 439.051473 427.849562 
L 439.457426 427.880276 
L 439.660403 427.989411 
L 441.08124 427.830685 
L 441.69017 427.921974 
L 442.096124 427.961519 
L 442.299101 427.827613 
L 442.705054 427.932329 
L 443.111008 427.923991 
L 443.313984 427.682864 
L 444.125891 427.684012 
L 444.531845 427.665307 
L 444.937798 427.806626 
L 445.952682 427.725787 
L 446.155659 427.602451 
L 446.358636 427.668929 
L 446.561612 427.876037 
L 446.967566 427.78833 
L 447.170543 427.813931 
L 447.576496 427.715467 
L 448.388403 427.62932 
L 448.794357 427.514374 
L 450.215194 427.481422 
L 450.621147 427.763904 
L 452.041985 427.810714 
L 452.244961 427.998312 
L 453.665799 428.083858 
L 454.680682 428.024121 
L 455.289613 428.042051 
L 455.898543 427.921194 
L 456.10152 427.784161 
L 458.740217 427.676154 
L 458.943194 427.574484 
L 459.146171 427.134222 
L 459.552124 427.101655 
L 459.755101 427.267343 
L 460.364031 427.254588 
L 460.769985 427.130706 
L 461.581892 427.186086 
L 462.393799 427.165617 
L 463.205706 427.098397 
L 463.408683 426.825478 
L 464.22059 426.809499 
L 464.423566 426.929679 
L 464.82952 426.843555 
L 465.235473 426.867648 
L 465.844404 426.738726 
L 466.859287 426.725986 
L 467.062264 426.385357 
L 467.874171 426.355476 
L 468.077148 426.52955 
L 468.889055 426.537122 
L 469.295008 426.412684 
L 471.527753 426.473777 
L 471.933706 426.531613 
L 481.06766 426.50449 
L 481.473613 427.230349 
L 484.112311 427.222962 
L 484.518265 427.113659 
L 486.345055 427.043354 
L 486.548032 426.351738 
L 488.171846 426.447743 
L 489.389707 426.81018 
L 489.998637 426.81334 
L 490.607567 426.823325 
L 490.810544 426.577334 
L 493.855195 426.577239 
L 494.058172 426.371439 
L 494.464125 426.324415 
L 494.667102 425.972246 
L 495.073056 426.080752 
L 495.884963 426.074278 
L 496.290916 425.861748 
L 497.91473 425.760084 
L 498.320684 425.632615 
L 498.52366 425.505802 
L 499.335567 425.642777 
L 499.741521 425.848306 
L 501.974265 425.795369 
L 502.380219 425.564879 
L 504.207009 425.662583 
L 505.018916 425.697046 
L 506.439754 425.57496 
L 506.64273 425.575556 
L 506.845707 426.008735 
L 509.687382 426.070626 
L 510.093335 426.091592 
L 510.296312 425.826151 
L 513.340963 425.887822 
L 513.949893 425.86549 
L 514.15287 426.191846 
L 514.558824 426.265236 
L 517.603475 426.37249 
L 518.618359 426.463997 
L 518.821335 426.237979 
L 523.489801 426.346578 
L 524.098731 426.382563 
L 524.910638 426.452209 
L 525.316591 426.876683 
L 525.519568 426.698821 
L 525.925521 426.796326 
L 526.534452 426.758491 
L 527.346359 426.887772 
L 529.173149 426.790294 
L 529.579103 426.705516 
L 529.78208 427.01306 
L 531.405894 427.132959 
L 531.811847 427.189567 
L 533.232684 427.038744 
L 535.059475 426.941715 
L 535.465429 426.915888 
L 535.668405 427.092083 
L 536.277336 426.925479 
L 536.683289 426.81749 
L 539.524964 426.913766 
L 539.72794 426.739739 
L 541.148778 426.850229 
L 541.351754 427.106256 
L 542.163661 427.118881 
L 542.772592 427.174924 
L 543.381522 427.12583 
L 543.584499 427.222626 
L 543.787475 427.043096 
L 545.005336 427.077547 
L 545.208313 426.902994 
L 545.614266 426.912661 
L 546.62915 426.881035 
L 546.832127 426.636208 
L 547.23808 426.712789 
L 547.644034 426.742872 
L 548.861894 426.805351 
L 553.327383 426.551408 
L 553.733336 426.638211 
L 554.342266 426.587078 
L 554.74822 426.636202 
L 555.154173 426.59677 
L 555.35715 426.772885 
L 555.560127 426.779859 
L 555.763104 426.914154 
L 556.575011 426.91006 
L 558.198825 426.989441 
L 558.401801 426.943158 
L 558.604778 426.608795 
L 561.040499 426.934269 
L 563.47622 426.801068 
L 564.897057 426.772173 
L 566.520871 426.72945 
L 567.332778 426.642583 
L 567.738732 426.471391 
L 568.347662 426.526431 
L 568.753616 426.326705 
L 570.580406 426.106879 
L 570.98636 426.266302 
L 571.392313 426.233926 
L 571.59529 426.226883 
L 571.798267 426.015328 
L 572.610174 426.042759 
L 572.813151 426.027838 
L 573.219104 426.359633 
L 577.481616 426.595276 
L 577.684593 426.804409 
L 579.308407 426.709639 
L 580.932221 426.740563 
L 581.541151 426.546044 
L 581.744128 426.362056 
L 581.947104 426.365953 
L 582.150081 426.07586 
L 582.556035 426.025647 
L 582.961988 426.023143 
L 583.367942 426.417336 
L 583.570918 426.403601 
L 583.773895 426.235738 
L 584.179849 426.242791 
L 584.382825 426.446981 
L 584.991756 426.444708 
L 585.397709 426.545846 
L 585.803663 426.553099 
L 586.006639 426.414549 
L 586.818546 426.405362 
L 587.021523 426.220332 
L 587.2245 426.207896 
L 587.630453 426.391007 
L 588.239384 426.437119 
L 590.066174 426.509621 
L 590.269151 426.308583 
L 590.878081 426.261829 
L 591.284035 426.176107 
L 592.095942 426.135961 
L 592.298919 425.612701 
L 592.501895 425.492373 
L 592.704872 425.531823 
L 592.907849 425.754447 
L 593.516779 425.801081 
L 594.125709 425.762333 
L 594.328686 425.956692 
L 594.937616 425.937307 
L 595.140593 425.533579 
L 595.34357 425.411583 
L 596.56143 425.594204 
L 598.388221 425.521857 
L 599.403105 425.720393 
L 599.606082 424.999623 
L 599.809058 425.344304 
L 600.417989 425.372993 
L 602.244779 425.28115 
L 602.447756 425.129869 
L 603.46264 425.173287 
L 603.665617 425.357585 
L 605.289431 425.355688 
L 605.492407 425.350356 
L 605.695384 425.668179 
L 606.101338 425.565655 
L 607.725152 425.570459 
L 608.334082 425.461208 
L 611.784687 425.419726 
L 612.19064 425.330666 
L 613.002547 425.477694 
L 613.611477 425.500688 
L 614.829338 425.538161 
L 616.047198 425.441605 
L 617.062082 425.524206 
L 617.873989 425.469827 
L 619.09185 425.500902 
L 619.70078 425.548954 
L 619.903757 425.844356 
L 620.715664 425.789168 
L 621.324594 425.757445 
L 624.978175 425.759336 
L 625.181152 425.566159 
L 626.804966 425.507794 
L 627.007943 425.318875 
L 629.03771 425.37395 
L 630.661524 425.155249 
L 630.864501 425.44527 
L 631.270455 425.444882 
L 631.473431 425.53203 
L 631.676408 425.38535 
L 632.285338 425.465916 
L 632.691292 425.568803 
L 633.300222 425.594439 
L 633.503199 425.931069 
L 633.706176 425.565297 
L 634.315106 425.568951 
L 635.127013 425.604424 
L 637.359757 425.685357 
L 637.968687 425.693819 
L 638.171664 425.718058 
L 638.374641 425.562778 
L 639.186548 425.64426 
L 639.389525 425.28422 
L 642.434176 425.38252 
L 642.840129 425.461164 
L 643.855013 425.809142 
L 644.260967 425.809142 
L 644.463943 426.032165 
L 645.072874 426.04694 
L 645.478827 426.1139 
L 645.681804 426.653887 
L 646.087757 426.579506 
L 646.493711 426.839616 
L 647.102641 426.852379 
L 647.305618 427.05907 
L 648.523478 426.964907 
L 648.929432 427.002244 
L 649.132409 427.218822 
L 649.741339 427.175091 
L 650.147292 427.235005 
L 650.553246 427.244906 
L 650.756223 427.451727 
L 650.959199 427.451727 
L 651.162176 427.686735 
L 652.78599 427.40126 
L 653.191944 427.48467 
L 653.597897 427.483618 
L 653.800874 427.602584 
L 655.221711 427.432864 
L 655.424688 427.520716 
L 656.033618 427.496763 
L 656.845525 427.437282 
L 658.266362 427.500662 
L 659.281246 427.698884 
L 659.6872 427.708122 
L 659.890176 427.483049 
L 660.499107 427.438726 
L 660.90506 427.343086 
L 661.108037 426.991493 
L 661.51399 427.008785 
L 662.934828 427.095073 
L 663.543758 427.079164 
L 665.167572 427.204842 
L 668.009246 427.439166 
L 669.63306 427.664655 
L 669.836037 427.757356 
L 670.241991 427.635811 
L 670.647944 427.623514 
L 672.271758 427.480108 
L 672.474735 427.701614 
L 673.083665 427.658594 
L 675.316409 427.756128 
L 676.128316 427.756502 
L 676.331293 427.605404 
L 676.53427 427.88932 
L 678.361061 427.90557 
L 678.767014 427.749447 
L 679.172968 427.808812 
L 682.217619 427.892703 
L 683.029526 428.003884 
L 684.247386 428.003575 
L 684.247386 428.003575 
" clip-path="url(#pca31b4f2e2)" style="fill: none; stroke: #ff7f0e; stroke-width: 1.5; stroke-linecap: square"/>
   </g>
   <g id="patch_3">
    <path d="M 45.08375 450.72 
L 45.08375 7.2 
" style="fill: none; stroke: #000000; stroke-width: 0.8; stroke-linejoin: miter; stroke-linecap: square"/>
   </g>
   <g id="patch_4">
    <path d="M 714.68375 450.72 
L 714.68375 7.2 
" style="fill: none; stroke: #000000; stroke-width: 0.8; stroke-linejoin: miter; stroke-linecap: square"/>
   </g>
   <g id="patch_5">
    <path d="M 45.08375 450.72 
L 714.68375 450.72 
" style="fill: none; stroke: #000000; stroke-width: 0.8; stroke-linejoin: miter; stroke-linecap: square"/>
   </g>
   <g id="patch_6">
    <path d="M 45.08375 7.2 
L 714.68375 7.2 
" style="fill: none; stroke: #000000; stroke-width: 0.8; stroke-linejoin: miter; stroke-linecap: square"/>
   </g>
  </g>
 </g>
 <defs>
  <clipPath id="pca31b4f2e2">
   <rect x="45.08375" y="7.2" width="669.6" height="443.52"/>
  </clipPath>
 </defs>
</svg>
