<?xml version="1.0" encoding="utf-8" standalone="no"?>
<!DOCTYPE svg PUBLIC "-//W3C//DTD SVG 1.1//EN"
  "http://www.w3.org/Graphics/SVG/1.1/DTD/svg11.dtd">
<svg xmlns:xlink="http://www.w3.org/1999/xlink" width="460.8pt" height="345.6pt" viewBox="0 0 460.8 345.6" xmlns="http://www.w3.org/2000/svg" version="1.1">
 <metadata>
  <rdf:RDF xmlns:dc="http://purl.org/dc/elements/1.1/" xmlns:cc="http://creativecommons.org/ns#" xmlns:rdf="http://www.w3.org/1999/02/22-rdf-syntax-ns#">
   <cc:Work>
    <dc:type rdf:resource="http://purl.org/dc/dcmitype/StillImage"/>
    <dc:date>2025-08-19T14:25:39.136661</dc:date>
    <dc:format>image/svg+xml</dc:format>
    <dc:creator>
     <cc:Agent>
      <dc:title>Matplotlib v3.7.0, https://matplotlib.org/</dc:title>
     </cc:Agent>
    </dc:creator>
   </cc:Work>
  </rdf:RDF>
 </metadata>
 <defs>
  <style type="text/css">*{stroke-linejoin: round; stroke-linecap: butt}</style>
 </defs>
 <g id="figure_1">
  <g id="patch_1">
   <path d="M 0 345.6 
L 460.8 345.6 
L 460.8 0 
L 0 0 
z
" style="fill: #ffffff"/>
  </g>
  <g id="axes_1">
   <g id="patch_2">
    <path d="M 57.6 307.584 
L 414.72 307.584 
L 414.72 41.472 
L 57.6 41.472 
z
" style="fill: #ffffff"/>
   </g>
   <g id="matplotlib.axis_1">
    <g id="xtick_1">
     <g id="line2d_1">
      <defs>
       <path id="m972f82510f" d="M 0 0 
L 0 3.5 
" style="stroke: #000000; stroke-width: 0.8"/>
      </defs>
      <g>
       <use xlink:href="#m972f82510f" x="73.832727" y="307.584" style="stroke: #000000; stroke-width: 0.8"/>
      </g>
     </g>
     <g id="text_1">
      <text style="font: 10px 'DejaVu Sans', 'Bitstream Vera Sans', 'Computer Modern Sans Serif', 'Lucida Grande', 'Verdana', 'Geneva', 'Lucid', 'Arial', 'Helvetica', 'Avant Garde', sans-serif; text-anchor: middle" x="73.832727" y="322.182437" transform="rotate(-0 73.832727 322.182437)">0</text>
     </g>
    </g>
    <g id="xtick_2">
     <g id="line2d_2">
      <g>
       <use xlink:href="#m972f82510f" x="115.032543" y="307.584" style="stroke: #000000; stroke-width: 0.8"/>
      </g>
     </g>
     <g id="text_2">
      <text style="font: 10px 'DejaVu Sans', 'Bitstream Vera Sans', 'Computer Modern Sans Serif', 'Lucida Grande', 'Verdana', 'Geneva', 'Lucid', 'Arial', 'Helvetica', 'Avant Garde', sans-serif; text-anchor: middle" x="115.032543" y="322.182437" transform="rotate(-0 115.032543 322.182437)">50</text>
     </g>
    </g>
    <g id="xtick_3">
     <g id="line2d_3">
      <g>
       <use xlink:href="#m972f82510f" x="156.232358" y="307.584" style="stroke: #000000; stroke-width: 0.8"/>
      </g>
     </g>
     <g id="text_3">
      <text style="font: 10px 'DejaVu Sans', 'Bitstream Vera Sans', 'Computer Modern Sans Serif', 'Lucida Grande', 'Verdana', 'Geneva', 'Lucid', 'Arial', 'Helvetica', 'Avant Garde', sans-serif; text-anchor: middle" x="156.232358" y="322.182437" transform="rotate(-0 156.232358 322.182437)">100</text>
     </g>
    </g>
    <g id="xtick_4">
     <g id="line2d_4">
      <g>
       <use xlink:href="#m972f82510f" x="197.432174" y="307.584" style="stroke: #000000; stroke-width: 0.8"/>
      </g>
     </g>
     <g id="text_4">
      <text style="font: 10px 'DejaVu Sans', 'Bitstream Vera Sans', 'Computer Modern Sans Serif', 'Lucida Grande', 'Verdana', 'Geneva', 'Lucid', 'Arial', 'Helvetica', 'Avant Garde', sans-serif; text-anchor: middle" x="197.432174" y="322.182437" transform="rotate(-0 197.432174 322.182437)">150</text>
     </g>
    </g>
    <g id="xtick_5">
     <g id="line2d_5">
      <g>
       <use xlink:href="#m972f82510f" x="238.631989" y="307.584" style="stroke: #000000; stroke-width: 0.8"/>
      </g>
     </g>
     <g id="text_5">
      <text style="font: 10px 'DejaVu Sans', 'Bitstream Vera Sans', 'Computer Modern Sans Serif', 'Lucida Grande', 'Verdana', 'Geneva', 'Lucid', 'Arial', 'Helvetica', 'Avant Garde', sans-serif; text-anchor: middle" x="238.631989" y="322.182437" transform="rotate(-0 238.631989 322.182437)">200</text>
     </g>
    </g>
    <g id="xtick_6">
     <g id="line2d_6">
      <g>
       <use xlink:href="#m972f82510f" x="279.831804" y="307.584" style="stroke: #000000; stroke-width: 0.8"/>
      </g>
     </g>
     <g id="text_6">
      <text style="font: 10px 'DejaVu Sans', 'Bitstream Vera Sans', 'Computer Modern Sans Serif', 'Lucida Grande', 'Verdana', 'Geneva', 'Lucid', 'Arial', 'Helvetica', 'Avant Garde', sans-serif; text-anchor: middle" x="279.831804" y="322.182437" transform="rotate(-0 279.831804 322.182437)">250</text>
     </g>
    </g>
    <g id="xtick_7">
     <g id="line2d_7">
      <g>
       <use xlink:href="#m972f82510f" x="321.03162" y="307.584" style="stroke: #000000; stroke-width: 0.8"/>
      </g>
     </g>
     <g id="text_7">
      <text style="font: 10px 'DejaVu Sans', 'Bitstream Vera Sans', 'Computer Modern Sans Serif', 'Lucida Grande', 'Verdana', 'Geneva', 'Lucid', 'Arial', 'Helvetica', 'Avant Garde', sans-serif; text-anchor: middle" x="321.03162" y="322.182437" transform="rotate(-0 321.03162 322.182437)">300</text>
     </g>
    </g>
    <g id="xtick_8">
     <g id="line2d_8">
      <g>
       <use xlink:href="#m972f82510f" x="362.231435" y="307.584" style="stroke: #000000; stroke-width: 0.8"/>
      </g>
     </g>
     <g id="text_8">
      <text style="font: 10px 'DejaVu Sans', 'Bitstream Vera Sans', 'Computer Modern Sans Serif', 'Lucida Grande', 'Verdana', 'Geneva', 'Lucid', 'Arial', 'Helvetica', 'Avant Garde', sans-serif; text-anchor: middle" x="362.231435" y="322.182437" transform="rotate(-0 362.231435 322.182437)">350</text>
     </g>
    </g>
    <g id="xtick_9">
     <g id="line2d_9">
      <g>
       <use xlink:href="#m972f82510f" x="403.431251" y="307.584" style="stroke: #000000; stroke-width: 0.8"/>
      </g>
     </g>
     <g id="text_9">
      <text style="font: 10px 'DejaVu Sans', 'Bitstream Vera Sans', 'Computer Modern Sans Serif', 'Lucida Grande', 'Verdana', 'Geneva', 'Lucid', 'Arial', 'Helvetica', 'Avant Garde', sans-serif; text-anchor: middle" x="403.431251" y="322.182437" transform="rotate(-0 403.431251 322.182437)">400</text>
     </g>
    </g>
    <g id="text_10">
     <text style="font: 15px 'DejaVu Sans', 'Bitstream Vera Sans', 'Computer Modern Sans Serif', 'Lucida Grande', 'Verdana', 'Geneva', 'Lucid', 'Arial', 'Helvetica', 'Avant Garde', sans-serif; text-anchor: middle" x="236.16" y="339.659781" transform="rotate(-0 236.16 339.659781)">Number of Mutations Buffered</text>
    </g>
   </g>
   <g id="matplotlib.axis_2">
    <g id="ytick_1">
     <g id="line2d_10">
      <defs>
       <path id="m204916b0be" d="M 0 0 
L -3.5 0 
" style="stroke: #000000; stroke-width: 0.8"/>
      </defs>
      <g>
       <use xlink:href="#m204916b0be" x="57.6" y="307.584" style="stroke: #000000; stroke-width: 0.8"/>
      </g>
     </g>
     <g id="text_11">
      <text style="font: 10px 'DejaVu Sans', 'Bitstream Vera Sans', 'Computer Modern Sans Serif', 'Lucida Grande', 'Verdana', 'Geneva', 'Lucid', 'Arial', 'Helvetica', 'Avant Garde', sans-serif; text-anchor: end" x="50.6" y="311.383219" transform="rotate(-0 50.6 311.383219)">0.0</text>
     </g>
    </g>
    <g id="ytick_2">
     <g id="line2d_11">
      <g>
       <use xlink:href="#m204916b0be" x="57.6" y="254.3616" style="stroke: #000000; stroke-width: 0.8"/>
      </g>
     </g>
     <g id="text_12">
      <text style="font: 10px 'DejaVu Sans', 'Bitstream Vera Sans', 'Computer Modern Sans Serif', 'Lucida Grande', 'Verdana', 'Geneva', 'Lucid', 'Arial', 'Helvetica', 'Avant Garde', sans-serif; text-anchor: end" x="50.6" y="258.160819" transform="rotate(-0 50.6 258.160819)">0.2</text>
     </g>
    </g>
    <g id="ytick_3">
     <g id="line2d_12">
      <g>
       <use xlink:href="#m204916b0be" x="57.6" y="201.1392" style="stroke: #000000; stroke-width: 0.8"/>
      </g>
     </g>
     <g id="text_13">
      <text style="font: 10px 'DejaVu Sans', 'Bitstream Vera Sans', 'Computer Modern Sans Serif', 'Lucida Grande', 'Verdana', 'Geneva', 'Lucid', 'Arial', 'Helvetica', 'Avant Garde', sans-serif; text-anchor: end" x="50.6" y="204.938419" transform="rotate(-0 50.6 204.938419)">0.4</text>
     </g>
    </g>
    <g id="ytick_4">
     <g id="line2d_13">
      <g>
       <use xlink:href="#m204916b0be" x="57.6" y="147.9168" style="stroke: #000000; stroke-width: 0.8"/>
      </g>
     </g>
     <g id="text_14">
      <text style="font: 10px 'DejaVu Sans', 'Bitstream Vera Sans', 'Computer Modern Sans Serif', 'Lucida Grande', 'Verdana', 'Geneva', 'Lucid', 'Arial', 'Helvetica', 'Avant Garde', sans-serif; text-anchor: end" x="50.6" y="151.716019" transform="rotate(-0 50.6 151.716019)">0.6</text>
     </g>
    </g>
    <g id="ytick_5">
     <g id="line2d_14">
      <g>
       <use xlink:href="#m204916b0be" x="57.6" y="94.6944" style="stroke: #000000; stroke-width: 0.8"/>
      </g>
     </g>
     <g id="text_15">
      <text style="font: 10px 'DejaVu Sans', 'Bitstream Vera Sans', 'Computer Modern Sans Serif', 'Lucida Grande', 'Verdana', 'Geneva', 'Lucid', 'Arial', 'Helvetica', 'Avant Garde', sans-serif; text-anchor: end" x="50.6" y="98.493619" transform="rotate(-0 50.6 98.493619)">0.8</text>
     </g>
    </g>
    <g id="ytick_6">
     <g id="line2d_15">
      <g>
       <use xlink:href="#m204916b0be" x="57.6" y="41.472" style="stroke: #000000; stroke-width: 0.8"/>
      </g>
     </g>
     <g id="text_16">
      <text style="font: 10px 'DejaVu Sans', 'Bitstream Vera Sans', 'Computer Modern Sans Serif', 'Lucida Grande', 'Verdana', 'Geneva', 'Lucid', 'Arial', 'Helvetica', 'Avant Garde', sans-serif; text-anchor: end" x="50.6" y="45.271219" transform="rotate(-0 50.6 45.271219)">1.0</text>
     </g>
    </g>
    <g id="text_17">
     <text style="font: 20px 'DejaVu Sans', 'Bitstream Vera Sans', 'Computer Modern Sans Serif', 'Lucida Grande', 'Verdana', 'Geneva', 'Lucid', 'Arial', 'Helvetica', 'Avant Garde', sans-serif; text-anchor: middle" x="26.5375" y="174.528" transform="rotate(-90 26.5375 174.528)">Proportion</text>
    </g>
   </g>
   <g id="line2d_16">
    <path d="M 73.832727 41.472 
L 73.832727 42.012878 
L 74.656724 42.012878 
L 74.656724 42.283317 
L 75.48072 42.283317 
L 75.48072 43.635512 
L 76.304716 43.635512 
L 76.304716 46.339902 
L 77.128713 46.339902 
L 77.128713 47.692098 
L 77.952709 47.692098 
L 77.952709 49.314732 
L 78.776705 49.314732 
L 78.776705 50.666927 
L 79.600701 50.666927 
L 79.600701 53.371317 
L 80.424698 53.371317 
L 80.424698 55.26439 
L 81.248694 55.26439 
L 81.248694 56.887024 
L 82.07269 56.887024 
L 82.07269 59.320976 
L 82.896687 59.320976 
L 82.896687 62.025366 
L 83.720683 62.025366 
L 83.720683 66.35239 
L 84.544679 66.35239 
L 84.544679 68.515902 
L 85.368676 68.515902 
L 85.368676 72.03161 
L 86.192672 72.03161 
L 86.192672 72.842927 
L 87.016668 72.842927 
L 87.016668 76.899512 
L 87.840665 76.899512 
L 87.840665 79.874341 
L 88.664661 79.874341 
L 88.664661 82.037854 
L 89.488657 82.037854 
L 89.488657 85.553561 
L 90.312653 85.553561 
L 90.312653 89.339707 
L 91.13665 89.339707 
L 91.13665 91.50322 
L 91.960646 91.50322 
L 91.960646 95.289366 
L 92.784642 95.289366 
L 92.784642 98.805073 
L 93.608639 98.805073 
L 93.608639 103.672976 
L 94.432635 103.672976 
L 94.432635 107.729561 
L 95.256631 107.729561 
L 95.256631 112.327024 
L 96.080628 112.327024 
L 96.080628 116.654049 
L 96.904624 116.654049 
L 96.904624 120.169756 
L 97.72862 120.169756 
L 97.72862 123.144585 
L 98.552617 123.144585 
L 98.552617 126.660293 
L 99.376613 126.660293 
L 99.376613 130.446439 
L 100.200609 130.446439 
L 100.200609 133.421268 
L 101.024605 133.421268 
L 101.024605 137.748293 
L 101.848602 137.748293 
L 101.848602 141.264 
L 102.672598 141.264 
L 102.672598 145.050146 
L 103.496594 145.050146 
L 103.496594 149.377171 
L 104.320591 149.377171 
L 104.320591 153.163317 
L 105.144587 153.163317 
L 105.144587 157.76078 
L 105.968583 157.76078 
L 105.968583 161.546927 
L 106.79258 161.546927 
L 106.79258 165.603512 
L 107.616576 165.603512 
L 107.616576 167.767024 
L 108.440572 167.767024 
L 108.440572 172.634927 
L 109.264569 172.634927 
L 109.264569 176.150634 
L 110.088565 176.150634 
L 110.088565 181.829854 
L 110.912561 181.829854 
L 110.912561 185.886439 
L 111.736557 185.886439 
L 111.736557 188.32039 
L 112.560554 188.32039 
L 112.560554 190.213463 
L 113.38455 190.213463 
L 113.38455 191.836098 
L 114.208546 191.836098 
L 114.208546 193.729171 
L 115.032543 193.729171 
L 115.032543 196.704 
L 115.856539 196.704 
L 115.856539 199.949268 
L 116.680535 199.949268 
L 116.680535 202.653659 
L 117.504532 202.653659 
L 117.504532 206.439805 
L 118.328528 206.439805 
L 118.328528 208.603317 
L 119.152524 208.603317 
L 119.152524 212.930341 
L 119.976521 212.930341 
L 119.976521 216.716488 
L 120.800517 216.716488 
L 120.800517 220.502634 
L 121.624513 220.502634 
L 121.624513 223.207024 
L 122.448509 223.207024 
L 122.448509 226.181854 
L 123.272506 226.181854 
L 123.272506 229.697561 
L 124.096502 229.697561 
L 124.096502 232.67239 
L 124.920498 232.67239 
L 124.920498 234.565463 
L 125.744495 234.565463 
L 125.744495 235.917659 
L 126.568491 235.917659 
L 126.568491 238.35161 
L 127.392487 238.35161 
L 127.392487 241.596878 
L 128.216484 241.596878 
L 128.216484 244.301268 
L 129.04048 244.301268 
L 129.04048 246.46478 
L 129.864476 246.46478 
L 129.864476 249.710049 
L 130.688473 249.710049 
L 130.688473 251.603122 
L 131.512469 251.603122 
L 131.512469 254.037073 
L 132.336465 254.037073 
L 132.336465 256.741463 
L 133.160461 256.741463 
L 133.160461 259.986732 
L 133.984458 259.986732 
L 133.984458 262.150244 
L 134.808454 262.150244 
L 134.808454 264.313756 
L 135.63245 264.313756 
L 135.63245 265.93639 
L 136.456447 265.93639 
L 136.456447 266.477268 
L 137.280443 266.477268 
L 137.280443 267.018146 
L 138.104439 267.018146 
L 138.104439 268.099902 
L 138.928436 268.099902 
L 138.928436 269.722537 
L 139.752432 269.722537 
L 139.752432 270.263415 
L 140.576428 270.263415 
L 140.576428 271.886049 
L 141.400425 271.886049 
L 141.400425 273.779122 
L 142.224421 273.779122 
L 142.224421 274.860878 
L 143.048417 274.860878 
L 143.048417 275.401756 
L 143.872413 275.401756 
L 143.872413 277.565268 
L 144.69641 277.565268 
L 144.69641 278.647024 
L 145.520406 278.647024 
L 145.520406 279.187902 
L 146.344402 279.187902 
L 146.344402 280.540098 
L 147.168399 280.540098 
L 147.168399 281.892293 
L 147.992395 281.892293 
L 147.992395 282.162732 
L 148.816391 282.162732 
L 148.816391 283.514927 
L 149.640388 283.514927 
L 149.640388 284.055805 
L 150.464384 284.055805 
L 150.464384 285.137561 
L 151.28838 285.137561 
L 151.28838 286.489756 
L 152.112377 286.489756 
L 152.112377 286.760195 
L 152.936373 286.760195 
L 152.936373 287.301073 
L 153.760369 287.301073 
L 153.760369 287.841951 
L 155.408362 287.841951 
L 155.408362 289.194146 
L 156.232358 289.194146 
L 156.232358 289.464585 
L 157.056354 289.464585 
L 157.056354 290.546341 
L 158.704347 290.546341 
L 158.704347 291.08722 
L 159.528343 291.08722 
L 159.528343 291.357659 
L 160.35234 291.357659 
L 160.35234 292.439415 
L 161.176336 292.439415 
L 161.176336 292.709854 
L 162.000332 292.709854 
L 162.000332 292.980293 
L 162.824329 292.980293 
L 162.824329 293.79161 
L 163.648325 293.79161 
L 163.648325 294.062049 
L 164.472321 294.062049 
L 164.472321 294.332488 
L 166.120314 294.332488 
L 166.120314 294.873366 
L 166.94431 294.873366 
L 166.94431 295.143805 
L 167.768306 295.143805 
L 167.768306 295.684683 
L 169.416299 295.684683 
L 169.416299 296.225561 
L 170.240295 296.225561 
L 170.240295 296.496 
L 171.888288 296.496 
L 171.888288 297.036878 
L 173.536281 297.036878 
L 173.536281 297.307317 
L 174.360277 297.307317 
L 174.360277 297.577756 
L 178.480258 297.577756 
L 178.480258 298.118634 
L 179.304255 298.118634 
L 179.304255 298.929951 
L 180.128251 298.929951 
L 180.128251 299.741268 
L 182.60024 299.741268 
L 182.60024 300.282146 
L 183.424236 300.282146 
L 183.424236 300.552585 
L 186.720222 300.552585 
L 186.720222 300.823024 
L 188.368214 300.823024 
L 188.368214 301.093463 
L 189.19221 301.093463 
L 189.19221 301.363902 
L 191.664199 301.363902 
L 191.664199 301.634341 
L 194.136188 301.634341 
L 194.136188 301.90478 
L 200.728159 301.90478 
L 200.728159 302.445659 
L 202.376151 302.445659 
L 202.376151 302.986537 
L 204.84814 302.986537 
L 204.84814 303.256976 
L 206.496133 303.256976 
L 206.496133 303.527415 
L 212.264107 303.527415 
L 212.264107 303.797854 
L 225.448048 303.797854 
L 225.448048 304.068293 
L 228.744033 304.068293 
L 228.744033 304.338732 
L 229.56803 304.338732 
L 229.56803 304.87961 
L 232.040018 304.87961 
L 232.040018 305.150049 
L 233.688011 305.150049 
L 233.688011 305.420488 
L 238.631989 305.420488 
L 238.631989 305.690927 
L 239.455985 305.690927 
L 239.455985 305.961366 
L 245.223959 305.961366 
L 245.223959 306.231805 
L 260.055893 306.231805 
L 260.055893 306.502244 
L 274.887826 306.502244 
L 274.887826 306.772683 
L 282.303793 306.772683 
L 282.303793 307.043122 
L 285.599778 307.043122 
L 285.599778 307.313561 
L 398.487273 307.313561 
L 398.487273 307.584 
L 398.487273 307.584 
" clip-path="url(#pb6acd8f678)" style="fill: none; stroke: #ffffd9; stroke-width: 1.5; stroke-linecap: square"/>
   </g>
   <g id="line2d_17">
    <path d="M 73.832727 41.472 
L 73.832727 41.954087 
L 74.656724 41.954087 
L 74.656724 42.436174 
L 76.304716 42.436174 
L 76.304716 42.918261 
L 77.128713 42.918261 
L 77.128713 45.328696 
L 77.952709 45.328696 
L 77.952709 46.29287 
L 78.776705 46.29287 
L 78.776705 46.774957 
L 79.600701 46.774957 
L 79.600701 47.257043 
L 80.424698 47.257043 
L 80.424698 48.221217 
L 81.248694 48.221217 
L 81.248694 50.149565 
L 82.07269 50.149565 
L 82.07269 52.077913 
L 82.896687 52.077913 
L 82.896687 55.452522 
L 83.720683 55.452522 
L 83.720683 56.416696 
L 84.544679 56.416696 
L 84.544679 57.38087 
L 85.368676 57.38087 
L 85.368676 58.82713 
L 86.192672 58.82713 
L 86.192672 60.273391 
L 87.016668 60.273391 
L 87.016668 62.683826 
L 87.840665 62.683826 
L 87.840665 66.540522 
L 88.664661 66.540522 
L 88.664661 73.771826 
L 89.488657 73.771826 
L 89.488657 75.700174 
L 90.312653 75.700174 
L 90.312653 80.521043 
L 91.13665 80.521043 
L 91.13665 85.824 
L 91.960646 85.824 
L 91.960646 90.64487 
L 92.784642 90.64487 
L 92.784642 94.019478 
L 93.608639 94.019478 
L 93.608639 97.876174 
L 94.432635 97.876174 
L 94.432635 101.73287 
L 95.256631 101.73287 
L 95.256631 104.625391 
L 96.080628 104.625391 
L 96.080628 107.517913 
L 96.904624 107.517913 
L 96.904624 112.338783 
L 97.72862 112.338783 
L 97.72862 114.26713 
L 98.552617 114.26713 
L 98.552617 118.605913 
L 99.376613 118.605913 
L 99.376613 121.498435 
L 100.200609 121.498435 
L 100.200609 125.837217 
L 101.024605 125.837217 
L 101.024605 130.658087 
L 101.848602 130.658087 
L 101.848602 135.478957 
L 102.672598 135.478957 
L 102.672598 138.853565 
L 103.496594 138.853565 
L 103.496594 143.192348 
L 104.320591 143.192348 
L 104.320591 147.53113 
L 105.144587 147.53113 
L 105.144587 151.387826 
L 105.968583 151.387826 
L 105.968583 154.762435 
L 106.79258 154.762435 
L 106.79258 157.654957 
L 107.616576 157.654957 
L 107.616576 160.547478 
L 108.440572 160.547478 
L 108.440572 162.475826 
L 109.264569 162.475826 
L 109.264569 165.368348 
L 110.088565 165.368348 
L 110.088565 169.225043 
L 110.912561 169.225043 
L 110.912561 172.117565 
L 111.736557 172.117565 
L 111.736557 175.974261 
L 112.560554 175.974261 
L 112.560554 179.830957 
L 113.38455 179.830957 
L 113.38455 180.313043 
L 114.208546 180.313043 
L 114.208546 185.133913 
L 115.032543 185.133913 
L 115.032543 188.990609 
L 115.856539 188.990609 
L 115.856539 192.847304 
L 116.680535 192.847304 
L 116.680535 199.596522 
L 117.504532 199.596522 
L 117.504532 201.52487 
L 118.328528 201.52487 
L 118.328528 203.935304 
L 119.152524 203.935304 
L 119.152524 207.309913 
L 119.976521 207.309913 
L 119.976521 211.166609 
L 120.800517 211.166609 
L 120.800517 213.094957 
L 121.624513 213.094957 
L 121.624513 215.023304 
L 122.448509 215.023304 
L 122.448509 216.469565 
L 123.272506 216.469565 
L 123.272506 218.397913 
L 124.096502 218.397913 
L 124.096502 221.772522 
L 124.920498 221.772522 
L 124.920498 224.665043 
L 125.744495 224.665043 
L 125.744495 227.557565 
L 126.568491 227.557565 
L 126.568491 229.968 
L 127.392487 229.968 
L 127.392487 231.414261 
L 128.216484 231.414261 
L 128.216484 232.378435 
L 129.04048 232.378435 
L 129.04048 234.306783 
L 129.864476 234.306783 
L 129.864476 235.270957 
L 130.688473 235.270957 
L 130.688473 239.127652 
L 131.512469 239.127652 
L 131.512469 241.056 
L 133.160461 241.056 
L 133.160461 243.466435 
L 133.984458 243.466435 
L 133.984458 244.912696 
L 134.808454 244.912696 
L 134.808454 246.841043 
L 135.63245 246.841043 
L 135.63245 248.769391 
L 136.456447 248.769391 
L 136.456447 250.215652 
L 137.280443 250.215652 
L 137.280443 251.179826 
L 138.104439 251.179826 
L 138.104439 252.626087 
L 138.928436 252.626087 
L 138.928436 255.036522 
L 139.752432 255.036522 
L 139.752432 256.482783 
L 140.576428 256.482783 
L 140.576428 256.96487 
L 141.400425 256.96487 
L 141.400425 257.446957 
L 142.224421 257.446957 
L 142.224421 260.339478 
L 143.048417 260.339478 
L 143.048417 261.303652 
L 143.872413 261.303652 
L 143.872413 264.196174 
L 144.69641 264.196174 
L 144.69641 266.606609 
L 145.520406 266.606609 
L 145.520406 268.05287 
L 146.344402 268.05287 
L 146.344402 269.49913 
L 147.168399 269.49913 
L 147.168399 269.981217 
L 147.992395 269.981217 
L 147.992395 271.427478 
L 148.816391 271.427478 
L 148.816391 272.391652 
L 149.640388 272.391652 
L 149.640388 273.355826 
L 151.28838 273.355826 
L 151.28838 274.32 
L 152.112377 274.32 
L 152.112377 275.766261 
L 152.936373 275.766261 
L 152.936373 276.730435 
L 154.584365 276.730435 
L 154.584365 277.694609 
L 155.408362 277.694609 
L 155.408362 280.105043 
L 156.232358 280.105043 
L 156.232358 282.033391 
L 157.056354 282.033391 
L 157.056354 283.479652 
L 158.704347 283.479652 
L 158.704347 283.961739 
L 159.528343 283.961739 
L 159.528343 284.443826 
L 160.35234 284.443826 
L 160.35234 285.408 
L 161.176336 285.408 
L 161.176336 285.890087 
L 162.000332 285.890087 
L 162.000332 286.372174 
L 163.648325 286.372174 
L 163.648325 286.854261 
L 165.296317 286.854261 
L 165.296317 287.818435 
L 166.94431 287.818435 
L 166.94431 288.300522 
L 167.768306 288.300522 
L 167.768306 288.782609 
L 169.416299 288.782609 
L 169.416299 290.22887 
L 170.240295 290.22887 
L 170.240295 290.710957 
L 171.064292 290.710957 
L 171.064292 291.193043 
L 171.888288 291.193043 
L 171.888288 291.67513 
L 172.712284 291.67513 
L 172.712284 293.121391 
L 174.360277 293.121391 
L 174.360277 293.603478 
L 177.656262 293.603478 
L 177.656262 294.085565 
L 178.480258 294.085565 
L 178.480258 294.567652 
L 180.952247 294.567652 
L 180.952247 295.531826 
L 181.776244 295.531826 
L 181.776244 296.013913 
L 182.60024 296.013913 
L 182.60024 296.496 
L 183.424236 296.496 
L 183.424236 297.460174 
L 187.544218 297.460174 
L 187.544218 297.942261 
L 190.016207 297.942261 
L 190.016207 298.424348 
L 190.840203 298.424348 
L 190.840203 298.906435 
L 191.664199 298.906435 
L 191.664199 299.388522 
L 192.488196 299.388522 
L 192.488196 299.870609 
L 196.608177 299.870609 
L 196.608177 300.352696 
L 204.84814 300.352696 
L 204.84814 300.834783 
L 210.616114 300.834783 
L 210.616114 301.31687 
L 213.088103 301.31687 
L 213.088103 301.798957 
L 216.384089 301.798957 
L 216.384089 302.281043 
L 218.032081 302.281043 
L 218.032081 302.76313 
L 220.50407 302.76313 
L 220.50407 303.245217 
L 222.152063 303.245217 
L 222.152063 303.727304 
L 222.976059 303.727304 
L 222.976059 304.209391 
L 228.744033 304.209391 
L 228.744033 304.691478 
L 234.512007 304.691478 
L 234.512007 305.173565 
L 239.455985 305.173565 
L 239.455985 305.655652 
L 246.047956 305.655652 
L 246.047956 306.137739 
L 250.167937 306.137739 
L 250.167937 306.619826 
L 257.583904 306.619826 
L 257.583904 307.101913 
L 314.439649 307.101913 
L 314.439649 307.584 
L 314.439649 307.584 
" clip-path="url(#pb6acd8f678)" style="fill: none; stroke: #edf8b1; stroke-width: 1.5; stroke-linecap: square"/>
   </g>
   <g id="line2d_18">
    <path d="M 73.832727 41.472 
L 73.832727 43.264 
L 74.656724 43.264 
L 74.656724 45.056 
L 75.48072 45.056 
L 75.48072 45.952 
L 77.952709 45.952 
L 77.952709 47.744 
L 79.600701 47.744 
L 79.600701 48.64 
L 80.424698 48.64 
L 80.424698 49.536 
L 82.07269 49.536 
L 82.07269 50.432 
L 83.720683 50.432 
L 83.720683 51.328 
L 84.544679 51.328 
L 84.544679 54.912 
L 86.192672 54.912 
L 86.192672 57.6 
L 87.016668 57.6 
L 87.016668 58.496 
L 87.840665 58.496 
L 87.840665 62.08 
L 88.664661 62.08 
L 88.664661 62.976 
L 89.488657 62.976 
L 89.488657 67.456 
L 90.312653 67.456 
L 90.312653 72.832 
L 91.13665 72.832 
L 91.13665 73.728 
L 91.960646 73.728 
L 91.960646 75.52 
L 92.784642 75.52 
L 92.784642 79.104 
L 93.608639 79.104 
L 93.608639 83.584 
L 94.432635 83.584 
L 94.432635 86.272 
L 95.256631 86.272 
L 95.256631 89.856 
L 96.080628 89.856 
L 96.080628 90.752 
L 96.904624 90.752 
L 96.904624 94.336 
L 97.72862 94.336 
L 97.72862 95.232 
L 98.552617 95.232 
L 98.552617 97.92 
L 99.376613 97.92 
L 99.376613 100.608 
L 100.200609 100.608 
L 100.200609 101.504 
L 101.024605 101.504 
L 101.024605 105.088 
L 101.848602 105.088 
L 101.848602 107.776 
L 102.672598 107.776 
L 102.672598 111.36 
L 103.496594 111.36 
L 103.496594 114.944 
L 104.320591 114.944 
L 104.320591 117.632 
L 105.144587 117.632 
L 105.144587 121.216 
L 105.968583 121.216 
L 105.968583 128.384 
L 106.79258 128.384 
L 106.79258 134.656 
L 107.616576 134.656 
L 107.616576 137.344 
L 108.440572 137.344 
L 108.440572 140.928 
L 109.264569 140.928 
L 109.264569 144.512 
L 110.088565 144.512 
L 110.088565 149.888 
L 110.912561 149.888 
L 110.912561 152.576 
L 111.736557 152.576 
L 111.736557 157.056 
L 112.560554 157.056 
L 112.560554 161.536 
L 113.38455 161.536 
L 113.38455 163.328 
L 114.208546 163.328 
L 114.208546 167.808 
L 115.032543 167.808 
L 115.032543 168.704 
L 115.856539 168.704 
L 115.856539 171.392 
L 116.680535 171.392 
L 116.680535 175.872 
L 117.504532 175.872 
L 117.504532 180.352 
L 118.328528 180.352 
L 118.328528 183.04 
L 119.152524 183.04 
L 119.152524 185.728 
L 119.976521 185.728 
L 119.976521 192.896 
L 120.800517 192.896 
L 120.800517 193.792 
L 121.624513 193.792 
L 121.624513 199.168 
L 122.448509 199.168 
L 122.448509 200.96 
L 123.272506 200.96 
L 123.272506 204.544 
L 124.096502 204.544 
L 124.096502 206.336 
L 124.920498 206.336 
L 124.920498 210.816 
L 125.744495 210.816 
L 125.744495 212.608 
L 126.568491 212.608 
L 126.568491 213.504 
L 127.392487 213.504 
L 127.392487 216.192 
L 128.216484 216.192 
L 128.216484 217.088 
L 129.04048 217.088 
L 129.04048 217.984 
L 129.864476 217.984 
L 129.864476 219.776 
L 130.688473 219.776 
L 130.688473 222.464 
L 131.512469 222.464 
L 131.512469 225.152 
L 132.336465 225.152 
L 132.336465 227.84 
L 133.160461 227.84 
L 133.160461 230.528 
L 133.984458 230.528 
L 133.984458 234.112 
L 134.808454 234.112 
L 134.808454 235.904 
L 135.63245 235.904 
L 135.63245 238.592 
L 136.456447 238.592 
L 136.456447 241.28 
L 137.280443 241.28 
L 137.280443 243.072 
L 138.104439 243.072 
L 138.104439 246.656 
L 138.928436 246.656 
L 138.928436 249.344 
L 139.752432 249.344 
L 139.752432 252.032 
L 140.576428 252.032 
L 140.576428 253.824 
L 141.400425 253.824 
L 141.400425 256.512 
L 142.224421 256.512 
L 142.224421 257.408 
L 143.048417 257.408 
L 143.048417 258.304 
L 143.872413 258.304 
L 143.872413 259.2 
L 145.520406 259.2 
L 145.520406 260.992 
L 148.816391 260.992 
L 148.816391 264.576 
L 149.640388 264.576 
L 149.640388 265.472 
L 150.464384 265.472 
L 150.464384 269.056 
L 151.28838 269.056 
L 151.28838 270.848 
L 152.112377 270.848 
L 152.112377 272.64 
L 152.936373 272.64 
L 152.936373 273.536 
L 153.760369 273.536 
L 153.760369 275.328 
L 154.584365 275.328 
L 154.584365 278.016 
L 157.056354 278.016 
L 157.056354 278.912 
L 159.528343 278.912 
L 159.528343 279.808 
L 161.176336 279.808 
L 161.176336 280.704 
L 162.824329 280.704 
L 162.824329 283.392 
L 163.648325 283.392 
L 163.648325 285.184 
L 164.472321 285.184 
L 164.472321 286.08 
L 166.94431 286.08 
L 166.94431 286.976 
L 167.768306 286.976 
L 167.768306 287.872 
L 168.592303 287.872 
L 168.592303 288.768 
L 169.416299 288.768 
L 169.416299 289.664 
L 172.712284 289.664 
L 172.712284 291.456 
L 173.536281 291.456 
L 173.536281 292.352 
L 174.360277 292.352 
L 174.360277 293.248 
L 175.184273 293.248 
L 175.184273 294.144 
L 182.60024 294.144 
L 182.60024 295.936 
L 187.544218 295.936 
L 187.544218 296.832 
L 188.368214 296.832 
L 188.368214 298.624 
L 197.432174 298.624 
L 197.432174 299.52 
L 199.904162 299.52 
L 199.904162 300.416 
L 203.200148 300.416 
L 203.200148 301.312 
L 208.968122 301.312 
L 208.968122 303.104 
L 213.9121 303.104 
L 213.9121 304 
L 214.736096 304 
L 214.736096 304.896 
L 218.856078 304.896 
L 218.856078 305.792 
L 228.744033 305.792 
L 228.744033 306.688 
L 254.287919 306.688 
L 254.287919 307.584 
L 254.287919 307.584 
" clip-path="url(#pb6acd8f678)" style="fill: none; stroke: #c7e9b4; stroke-width: 1.5; stroke-linecap: square"/>
   </g>
   <g id="line2d_19">
    <path d="M 77.128713 41.472 
L 77.128713 43.056 
L 77.952709 43.056 
L 77.952709 44.64 
L 78.776705 44.64 
L 78.776705 46.224 
L 80.424698 46.224 
L 80.424698 49.392 
L 81.248694 49.392 
L 81.248694 50.976 
L 85.368676 50.976 
L 85.368676 52.56 
L 86.192672 52.56 
L 86.192672 54.144 
L 87.840665 54.144 
L 87.840665 55.728 
L 88.664661 55.728 
L 88.664661 57.312 
L 89.488657 57.312 
L 89.488657 60.48 
L 91.13665 60.48 
L 91.13665 62.064 
L 91.960646 62.064 
L 91.960646 63.648 
L 93.608639 63.648 
L 93.608639 65.232 
L 94.432635 65.232 
L 94.432635 69.984 
L 95.256631 69.984 
L 95.256631 74.736 
L 96.080628 74.736 
L 96.080628 76.32 
L 96.904624 76.32 
L 96.904624 77.904 
L 97.72862 77.904 
L 97.72862 81.072 
L 99.376613 81.072 
L 99.376613 84.24 
L 100.200609 84.24 
L 100.200609 87.408 
L 101.024605 87.408 
L 101.024605 88.992 
L 101.848602 88.992 
L 101.848602 90.576 
L 102.672598 90.576 
L 102.672598 96.912 
L 103.496594 96.912 
L 103.496594 98.496 
L 105.144587 98.496 
L 105.144587 100.08 
L 105.968583 100.08 
L 105.968583 104.832 
L 107.616576 104.832 
L 107.616576 111.168 
L 108.440572 111.168 
L 108.440572 114.336 
L 109.264569 114.336 
L 109.264569 120.672 
L 110.088565 120.672 
L 110.088565 123.84 
L 110.912561 123.84 
L 110.912561 127.008 
L 111.736557 127.008 
L 111.736557 131.76 
L 112.560554 131.76 
L 112.560554 134.928 
L 113.38455 134.928 
L 113.38455 136.512 
L 114.208546 136.512 
L 114.208546 141.264 
L 115.032543 141.264 
L 115.032543 142.848 
L 115.856539 142.848 
L 115.856539 144.432 
L 116.680535 144.432 
L 116.680535 146.016 
L 117.504532 146.016 
L 117.504532 149.184 
L 118.328528 149.184 
L 118.328528 150.768 
L 119.976521 150.768 
L 119.976521 152.352 
L 121.624513 152.352 
L 121.624513 155.52 
L 122.448509 155.52 
L 122.448509 158.688 
L 123.272506 158.688 
L 123.272506 160.272 
L 124.096502 160.272 
L 124.096502 165.024 
L 124.920498 165.024 
L 124.920498 171.36 
L 125.744495 171.36 
L 125.744495 172.944 
L 126.568491 172.944 
L 126.568491 176.112 
L 127.392487 176.112 
L 127.392487 180.864 
L 129.04048 180.864 
L 129.04048 184.032 
L 129.864476 184.032 
L 129.864476 190.368 
L 130.688473 190.368 
L 130.688473 195.12 
L 131.512469 195.12 
L 131.512469 198.288 
L 132.336465 198.288 
L 132.336465 199.872 
L 133.160461 199.872 
L 133.160461 201.456 
L 133.984458 201.456 
L 133.984458 203.04 
L 136.456447 203.04 
L 136.456447 207.792 
L 138.104439 207.792 
L 138.104439 209.376 
L 138.928436 209.376 
L 138.928436 214.128 
L 139.752432 214.128 
L 139.752432 220.464 
L 140.576428 220.464 
L 140.576428 222.048 
L 141.400425 222.048 
L 141.400425 223.632 
L 143.048417 223.632 
L 143.048417 225.216 
L 143.872413 225.216 
L 143.872413 226.8 
L 145.520406 226.8 
L 145.520406 229.968 
L 146.344402 229.968 
L 146.344402 231.552 
L 147.168399 231.552 
L 147.168399 234.72 
L 148.816391 234.72 
L 148.816391 236.304 
L 150.464384 236.304 
L 150.464384 241.056 
L 151.28838 241.056 
L 151.28838 242.64 
L 154.584365 242.64 
L 154.584365 244.224 
L 155.408362 244.224 
L 155.408362 245.808 
L 156.232358 245.808 
L 156.232358 247.392 
L 157.056354 247.392 
L 157.056354 248.976 
L 157.880351 248.976 
L 157.880351 250.56 
L 158.704347 250.56 
L 158.704347 255.312 
L 159.528343 255.312 
L 159.528343 256.896 
L 162.000332 256.896 
L 162.000332 261.648 
L 162.824329 261.648 
L 162.824329 263.232 
L 163.648325 263.232 
L 163.648325 264.816 
L 165.296317 264.816 
L 165.296317 266.4 
L 167.768306 266.4 
L 167.768306 267.984 
L 168.592303 267.984 
L 168.592303 271.152 
L 169.416299 271.152 
L 169.416299 272.736 
L 170.240295 272.736 
L 170.240295 274.32 
L 176.832266 274.32 
L 176.832266 275.904 
L 182.60024 275.904 
L 182.60024 279.072 
L 187.544218 279.072 
L 187.544218 283.824 
L 189.19221 283.824 
L 189.19221 285.408 
L 190.016207 285.408 
L 190.016207 286.992 
L 193.312192 286.992 
L 193.312192 288.576 
L 198.25617 288.576 
L 198.25617 290.16 
L 199.904162 290.16 
L 199.904162 291.744 
L 227.096041 291.744 
L 227.096041 293.328 
L 233.688011 293.328 
L 233.688011 294.912 
L 238.631989 294.912 
L 238.631989 296.496 
L 243.575967 296.496 
L 243.575967 298.08 
L 251.81593 298.08 
L 251.81593 299.664 
L 253.463922 299.664 
L 253.463922 301.248 
L 268.295856 301.248 
L 268.295856 302.832 
L 291.367753 302.832 
L 291.367753 304.416 
L 319.383627 304.416 
L 319.383627 306 
L 353.991472 306 
L 353.991472 307.584 
L 353.991472 307.584 
" clip-path="url(#pb6acd8f678)" style="fill: none; stroke: #7fcdbb; stroke-width: 1.5; stroke-linecap: square"/>
   </g>
   <g id="line2d_20">
    <path d="M 77.952709 41.472 
L 77.952709 43.635512 
L 82.896687 43.635512 
L 82.896687 45.799024 
L 83.720683 45.799024 
L 83.720683 47.962537 
L 88.664661 47.962537 
L 88.664661 50.126049 
L 90.312653 50.126049 
L 90.312653 52.289561 
L 93.608639 52.289561 
L 93.608639 56.616585 
L 95.256631 56.616585 
L 95.256631 58.780098 
L 96.904624 58.780098 
L 96.904624 63.107122 
L 97.72862 63.107122 
L 97.72862 65.270634 
L 98.552617 65.270634 
L 98.552617 67.434146 
L 101.024605 67.434146 
L 101.024605 69.597659 
L 102.672598 69.597659 
L 102.672598 71.761171 
L 103.496594 71.761171 
L 103.496594 76.088195 
L 106.79258 76.088195 
L 106.79258 80.41522 
L 107.616576 80.41522 
L 107.616576 86.905756 
L 109.264569 86.905756 
L 109.264569 89.069268 
L 110.088565 89.069268 
L 110.088565 91.23278 
L 110.912561 91.23278 
L 110.912561 93.396293 
L 111.736557 93.396293 
L 111.736557 95.559805 
L 112.560554 95.559805 
L 112.560554 99.886829 
L 113.38455 99.886829 
L 113.38455 102.050341 
L 114.208546 102.050341 
L 114.208546 108.540878 
L 116.680535 108.540878 
L 116.680535 110.70439 
L 118.328528 110.70439 
L 118.328528 112.867902 
L 119.152524 112.867902 
L 119.152524 117.194927 
L 119.976521 117.194927 
L 119.976521 121.521951 
L 120.800517 121.521951 
L 120.800517 130.176 
L 121.624513 130.176 
L 121.624513 132.339512 
L 122.448509 132.339512 
L 122.448509 134.503024 
L 123.272506 134.503024 
L 123.272506 138.830049 
L 124.096502 138.830049 
L 124.096502 145.320585 
L 124.920498 145.320585 
L 124.920498 147.484098 
L 125.744495 147.484098 
L 125.744495 151.811122 
L 126.568491 151.811122 
L 126.568491 153.974634 
L 128.216484 153.974634 
L 128.216484 158.301659 
L 129.04048 158.301659 
L 129.04048 162.628683 
L 129.864476 162.628683 
L 129.864476 164.792195 
L 130.688473 164.792195 
L 130.688473 166.955707 
L 131.512469 166.955707 
L 131.512469 169.11922 
L 132.336465 169.11922 
L 132.336465 177.773268 
L 133.160461 177.773268 
L 133.160461 182.100293 
L 133.984458 182.100293 
L 133.984458 186.427317 
L 134.808454 186.427317 
L 134.808454 188.590829 
L 137.280443 188.590829 
L 137.280443 190.754341 
L 138.104439 190.754341 
L 138.104439 195.081366 
L 140.576428 195.081366 
L 140.576428 197.244878 
L 141.400425 197.244878 
L 141.400425 199.40839 
L 142.224421 199.40839 
L 142.224421 201.571902 
L 143.048417 201.571902 
L 143.048417 203.735415 
L 144.69641 203.735415 
L 144.69641 208.062439 
L 147.992395 208.062439 
L 147.992395 210.225951 
L 148.816391 210.225951 
L 148.816391 212.389463 
L 150.464384 212.389463 
L 150.464384 214.552976 
L 154.584365 214.552976 
L 154.584365 218.88 
L 155.408362 218.88 
L 155.408362 221.043512 
L 157.880351 221.043512 
L 157.880351 223.207024 
L 160.35234 223.207024 
L 160.35234 225.370537 
L 166.120314 225.370537 
L 166.120314 229.697561 
L 167.768306 229.697561 
L 167.768306 234.024585 
L 168.592303 234.024585 
L 168.592303 236.188098 
L 170.240295 236.188098 
L 170.240295 238.35161 
L 172.712284 238.35161 
L 172.712284 240.515122 
L 173.536281 240.515122 
L 173.536281 242.678634 
L 175.184273 242.678634 
L 175.184273 244.842146 
L 176.008269 244.842146 
L 176.008269 247.005659 
L 177.656262 247.005659 
L 177.656262 249.169171 
L 180.128251 249.169171 
L 180.128251 251.332683 
L 180.952247 251.332683 
L 180.952247 257.82322 
L 182.60024 257.82322 
L 182.60024 259.986732 
L 184.248233 259.986732 
L 184.248233 262.150244 
L 185.072229 262.150244 
L 185.072229 264.313756 
L 185.896225 264.313756 
L 185.896225 266.477268 
L 187.544218 266.477268 
L 187.544218 268.64078 
L 189.19221 268.64078 
L 189.19221 272.967805 
L 190.016207 272.967805 
L 190.016207 275.131317 
L 190.840203 275.131317 
L 190.840203 277.294829 
L 198.25617 277.294829 
L 198.25617 279.458341 
L 202.376151 279.458341 
L 202.376151 281.621854 
L 206.496133 281.621854 
L 206.496133 285.948878 
L 208.968122 285.948878 
L 208.968122 288.11239 
L 213.088103 288.11239 
L 213.088103 290.275902 
L 216.384089 290.275902 
L 216.384089 292.439415 
L 218.032081 292.439415 
L 218.032081 294.602927 
L 223.800055 294.602927 
L 223.800055 296.766439 
L 229.56803 296.766439 
L 229.56803 298.929951 
L 240.279982 298.929951 
L 240.279982 301.093463 
L 258.4079 301.093463 
L 258.4079 303.256976 
L 289.71976 303.256976 
L 289.71976 305.420488 
L 301.255708 305.420488 
L 301.255708 307.584 
L 301.255708 307.584 
" clip-path="url(#pb6acd8f678)" style="fill: none; stroke: #41b6c4; stroke-width: 1.5; stroke-linecap: square"/>
   </g>
   <g id="line2d_21">
    <path d="M 90.312653 41.472 
L 90.312653 45.168 
L 96.080628 45.168 
L 96.080628 48.864 
L 103.496594 48.864 
L 103.496594 52.56 
L 104.320591 52.56 
L 104.320591 56.256 
L 106.79258 56.256 
L 106.79258 59.952 
L 108.440572 59.952 
L 108.440572 63.648 
L 109.264569 63.648 
L 109.264569 67.344 
L 110.088565 67.344 
L 110.088565 71.04 
L 111.736557 71.04 
L 111.736557 78.432 
L 115.032543 78.432 
L 115.032543 82.128 
L 115.856539 82.128 
L 115.856539 85.824 
L 116.680535 85.824 
L 116.680535 93.216 
L 117.504532 93.216 
L 117.504532 96.912 
L 119.152524 96.912 
L 119.152524 100.608 
L 120.800517 100.608 
L 120.800517 104.304 
L 121.624513 104.304 
L 121.624513 111.696 
L 123.272506 111.696 
L 123.272506 119.088 
L 124.920498 119.088 
L 124.920498 122.784 
L 125.744495 122.784 
L 125.744495 133.872 
L 127.392487 133.872 
L 127.392487 137.568 
L 128.216484 137.568 
L 128.216484 141.264 
L 130.688473 141.264 
L 130.688473 144.96 
L 132.336465 144.96 
L 132.336465 148.656 
L 133.160461 148.656 
L 133.160461 152.352 
L 133.984458 152.352 
L 133.984458 163.44 
L 134.808454 163.44 
L 134.808454 167.136 
L 136.456447 167.136 
L 136.456447 170.832 
L 140.576428 170.832 
L 140.576428 174.528 
L 141.400425 174.528 
L 141.400425 178.224 
L 143.048417 178.224 
L 143.048417 185.616 
L 143.872413 185.616 
L 143.872413 189.312 
L 144.69641 189.312 
L 144.69641 193.008 
L 145.520406 193.008 
L 145.520406 196.704 
L 149.640388 196.704 
L 149.640388 200.4 
L 150.464384 200.4 
L 150.464384 204.096 
L 152.112377 204.096 
L 152.112377 207.792 
L 153.760369 207.792 
L 153.760369 211.488 
L 157.056354 211.488 
L 157.056354 215.184 
L 157.880351 215.184 
L 157.880351 218.88 
L 158.704347 218.88 
L 158.704347 222.576 
L 159.528343 222.576 
L 159.528343 226.272 
L 161.176336 226.272 
L 161.176336 229.968 
L 162.824329 229.968 
L 162.824329 233.664 
L 163.648325 233.664 
L 163.648325 237.36 
L 165.296317 237.36 
L 165.296317 244.752 
L 166.94431 244.752 
L 166.94431 248.448 
L 176.008269 248.448 
L 176.008269 252.144 
L 179.304255 252.144 
L 179.304255 255.84 
L 180.952247 255.84 
L 180.952247 259.536 
L 182.60024 259.536 
L 182.60024 263.232 
L 184.248233 263.232 
L 184.248233 266.928 
L 188.368214 266.928 
L 188.368214 270.624 
L 191.664199 270.624 
L 191.664199 274.32 
L 197.432174 274.32 
L 197.432174 278.016 
L 199.080166 278.016 
L 199.080166 281.712 
L 202.376151 281.712 
L 202.376151 285.408 
L 209.792118 285.408 
L 209.792118 289.104 
L 216.384089 289.104 
L 216.384089 292.8 
L 235.336004 292.8 
L 235.336004 296.496 
L 237.807993 296.496 
L 237.807993 300.192 
L 250.167937 300.192 
L 250.167937 303.888 
L 251.81593 303.888 
L 251.81593 307.584 
L 251.81593 307.584 
" clip-path="url(#pb6acd8f678)" style="fill: none; stroke: #1d91c0; stroke-width: 1.5; stroke-linecap: square"/>
   </g>
   <g id="line2d_22">
    <path d="M 94.432635 41.472 
L 94.432635 46.902857 
L 96.080628 46.902857 
L 96.080628 52.333714 
L 97.72862 52.333714 
L 97.72862 57.764571 
L 98.552617 57.764571 
L 98.552617 63.195429 
L 99.376613 63.195429 
L 99.376613 68.626286 
L 103.496594 68.626286 
L 103.496594 74.057143 
L 105.968583 74.057143 
L 105.968583 79.488 
L 108.440572 79.488 
L 108.440572 84.918857 
L 109.264569 84.918857 
L 109.264569 90.349714 
L 113.38455 90.349714 
L 113.38455 95.780571 
L 118.328528 95.780571 
L 118.328528 101.211429 
L 119.976521 101.211429 
L 119.976521 106.642286 
L 120.800517 106.642286 
L 120.800517 112.073143 
L 124.920498 112.073143 
L 124.920498 117.504 
L 124.920498 117.504 
L 124.920498 122.934857 
L 129.04048 122.934857 
L 129.04048 128.365714 
L 130.688473 128.365714 
L 130.688473 133.796571 
L 131.512469 133.796571 
L 131.512469 139.227429 
L 132.336465 139.227429 
L 132.336465 144.658286 
L 133.160461 144.658286 
L 133.160461 150.089143 
L 140.576428 150.089143 
L 140.576428 155.52 
L 140.576428 155.52 
L 140.576428 160.950857 
L 142.224421 160.950857 
L 142.224421 166.381714 
L 142.224421 166.381714 
L 142.224421 171.812571 
L 143.048417 171.812571 
L 143.048417 177.243429 
L 144.69641 177.243429 
L 144.69641 182.674286 
L 146.344402 182.674286 
L 146.344402 188.105143 
L 147.992395 188.105143 
L 147.992395 193.536 
L 152.112377 193.536 
L 152.112377 198.966857 
L 152.936373 198.966857 
L 152.936373 204.397714 
L 152.936373 204.397714 
L 152.936373 209.828571 
L 154.584365 209.828571 
L 154.584365 215.259429 
L 155.408362 215.259429 
L 155.408362 220.690286 
L 161.176336 220.690286 
L 161.176336 226.121143 
L 164.472321 226.121143 
L 164.472321 231.552 
L 170.240295 231.552 
L 170.240295 236.982857 
L 177.656262 236.982857 
L 177.656262 242.413714 
L 184.248233 242.413714 
L 184.248233 247.844571 
L 184.248233 247.844571 
L 184.248233 253.275429 
L 184.248233 253.275429 
L 184.248233 258.706286 
L 186.720222 258.706286 
L 186.720222 264.137143 
L 194.960185 264.137143 
L 194.960185 269.568 
L 199.080166 269.568 
L 199.080166 274.998857 
L 212.264107 274.998857 
L 212.264107 280.429714 
L 215.560092 280.429714 
L 215.560092 285.860571 
L 229.56803 285.860571 
L 229.56803 291.291429 
L 241.927974 291.291429 
L 241.927974 296.722286 
L 265.823867 296.722286 
L 265.823867 302.153143 
L 279.007808 302.153143 
L 279.007808 307.584 
" clip-path="url(#pb6acd8f678)" style="fill: none; stroke: #225ea8; stroke-width: 1.5; stroke-linecap: square"/>
   </g>
   <g id="line2d_23">
    <path d="M 92.784642 41.472 
L 92.784642 48.664216 
L 101.848602 48.664216 
L 101.848602 55.856432 
L 107.616576 55.856432 
L 107.616576 63.048649 
L 108.440572 63.048649 
L 108.440572 70.240865 
L 110.088565 70.240865 
L 110.088565 77.433081 
L 113.38455 77.433081 
L 113.38455 84.625297 
L 121.624513 84.625297 
L 121.624513 91.817514 
L 127.392487 91.817514 
L 127.392487 99.00973 
L 131.512469 99.00973 
L 131.512469 106.201946 
L 137.280443 106.201946 
L 137.280443 113.394162 
L 138.104439 113.394162 
L 138.104439 120.586378 
L 147.168399 120.586378 
L 147.168399 127.778595 
L 148.816391 127.778595 
L 148.816391 134.970811 
L 152.112377 134.970811 
L 152.112377 142.163027 
L 152.112377 142.163027 
L 152.112377 149.355243 
L 160.35234 149.355243 
L 160.35234 156.547459 
L 160.35234 156.547459 
L 160.35234 163.739676 
L 167.768306 163.739676 
L 167.768306 170.931892 
L 168.592303 170.931892 
L 168.592303 178.124108 
L 170.240295 178.124108 
L 170.240295 185.316324 
L 171.064292 185.316324 
L 171.064292 192.508541 
L 175.184273 192.508541 
L 175.184273 199.700757 
L 177.656262 199.700757 
L 177.656262 206.892973 
L 184.248233 206.892973 
L 184.248233 214.085189 
L 185.072229 214.085189 
L 185.072229 221.277405 
L 191.664199 221.277405 
L 191.664199 228.469622 
L 192.488196 228.469622 
L 192.488196 235.661838 
L 194.136188 235.661838 
L 194.136188 242.854054 
L 196.608177 242.854054 
L 196.608177 250.04627 
L 208.144126 250.04627 
L 208.144126 257.238486 
L 213.088103 257.238486 
L 213.088103 264.430703 
L 235.336004 264.430703 
L 235.336004 271.622919 
L 265.823867 271.622919 
L 265.823867 278.815135 
L 274.06383 278.815135 
L 274.06383 286.007351 
L 325.151601 286.007351 
L 325.151601 293.199568 
L 356.463461 293.199568 
L 356.463461 300.391784 
L 357.287457 300.391784 
L 357.287457 307.584 
" clip-path="url(#pb6acd8f678)" style="fill: none; stroke: #0c2c84; stroke-width: 1.5; stroke-linecap: square"/>
   </g>
   <g id="patch_3">
    <path d="M 57.6 307.584 
L 57.6 41.472 
" style="fill: none; stroke: #000000; stroke-width: 0.8; stroke-linejoin: miter; stroke-linecap: square"/>
   </g>
   <g id="patch_4">
    <path d="M 414.72 307.584 
L 414.72 41.472 
" style="fill: none; stroke: #000000; stroke-width: 0.8; stroke-linejoin: miter; stroke-linecap: square"/>
   </g>
   <g id="patch_5">
    <path d="M 57.6 307.584 
L 414.72 307.584 
" style="fill: none; stroke: #000000; stroke-width: 0.8; stroke-linejoin: miter; stroke-linecap: square"/>
   </g>
   <g id="patch_6">
    <path d="M 57.6 41.472 
L 414.72 41.472 
" style="fill: none; stroke: #000000; stroke-width: 0.8; stroke-linejoin: miter; stroke-linecap: square"/>
   </g>
   <g id="legend_1">
    <g id="patch_7">
     <path d="M 350.730938 203.97075 
L 407.72 203.97075 
Q 409.72 203.97075 409.72 201.97075 
L 409.72 48.472 
Q 409.72 46.472 407.72 46.472 
L 350.730938 46.472 
Q 348.730938 46.472 348.730938 48.472 
L 348.730938 201.97075 
Q 348.730938 203.97075 350.730938 203.97075 
z
" style="fill: #ffffff; opacity: 0.8; stroke: #cccccc; stroke-linejoin: miter"/>
    </g>
    <g id="text_18">
     <text style="font: 10px 'DejaVu Sans', 'Bitstream Vera Sans', 'Computer Modern Sans Serif', 'Lucida Grande', 'Verdana', 'Geneva', 'Lucid', 'Arial', 'Helvetica', 'Avant Garde', sans-serif" transform="translate(352.730938 58.070438)">Number of</text>
     <text style="font: 10px 'DejaVu Sans', 'Bitstream Vera Sans', 'Computer Modern Sans Serif', 'Lucida Grande', 'Verdana', 'Geneva', 'Lucid', 'Arial', 'Helvetica', 'Avant Garde', sans-serif" transform="translate(352.730938 69.26825)">Conditions</text>
     <text style="font: 10px 'DejaVu Sans', 'Bitstream Vera Sans', 'Computer Modern Sans Serif', 'Lucida Grande', 'Verdana', 'Geneva', 'Lucid', 'Arial', 'Helvetica', 'Avant Garde', sans-serif" transform="translate(352.730938 80.466063)">  Buffered</text>
    </g>
    <g id="line2d_24">
     <path d="M 362.044219 91.644188 
L 372.044219 91.644188 
L 372.044219 91.644188 
L 382.044219 91.644188 
L 382.044219 91.644188 
" style="fill: none; stroke: #ffffd9; stroke-width: 1.5; stroke-linecap: square"/>
    </g>
    <g id="text_19">
     <text style="font: 10px 'DejaVu Sans', 'Bitstream Vera Sans', 'Computer Modern Sans Serif', 'Lucida Grande', 'Verdana', 'Geneva', 'Lucid', 'Arial', 'Helvetica', 'Avant Garde', sans-serif; text-anchor: start" x="390.044219" y="95.144188" transform="rotate(-0 390.044219 95.144188)">0</text>
    </g>
    <g id="line2d_25">
     <path d="M 362.044219 106.322313 
L 372.044219 106.322313 
L 372.044219 106.322313 
L 382.044219 106.322313 
L 382.044219 106.322313 
" style="fill: none; stroke: #edf8b1; stroke-width: 1.5; stroke-linecap: square"/>
    </g>
    <g id="text_20">
     <text style="font: 10px 'DejaVu Sans', 'Bitstream Vera Sans', 'Computer Modern Sans Serif', 'Lucida Grande', 'Verdana', 'Geneva', 'Lucid', 'Arial', 'Helvetica', 'Avant Garde', sans-serif; text-anchor: start" x="390.044219" y="109.822313" transform="rotate(-0 390.044219 109.822313)">1</text>
    </g>
    <g id="line2d_26">
     <path d="M 362.044219 121.000438 
L 372.044219 121.000438 
L 372.044219 121.000438 
L 382.044219 121.000438 
L 382.044219 121.000438 
" style="fill: none; stroke: #c7e9b4; stroke-width: 1.5; stroke-linecap: square"/>
    </g>
    <g id="text_21">
     <text style="font: 10px 'DejaVu Sans', 'Bitstream Vera Sans', 'Computer Modern Sans Serif', 'Lucida Grande', 'Verdana', 'Geneva', 'Lucid', 'Arial', 'Helvetica', 'Avant Garde', sans-serif; text-anchor: start" x="390.044219" y="124.500438" transform="rotate(-0 390.044219 124.500438)">2</text>
    </g>
    <g id="line2d_27">
     <path d="M 362.044219 135.678563 
L 372.044219 135.678563 
L 372.044219 135.678563 
L 382.044219 135.678563 
L 382.044219 135.678563 
" style="fill: none; stroke: #7fcdbb; stroke-width: 1.5; stroke-linecap: square"/>
    </g>
    <g id="text_22">
     <text style="font: 10px 'DejaVu Sans', 'Bitstream Vera Sans', 'Computer Modern Sans Serif', 'Lucida Grande', 'Verdana', 'Geneva', 'Lucid', 'Arial', 'Helvetica', 'Avant Garde', sans-serif; text-anchor: start" x="390.044219" y="139.178563" transform="rotate(-0 390.044219 139.178563)">3</text>
    </g>
    <g id="line2d_28">
     <path d="M 362.044219 150.356688 
L 372.044219 150.356688 
L 372.044219 150.356688 
L 382.044219 150.356688 
L 382.044219 150.356688 
" style="fill: none; stroke: #41b6c4; stroke-width: 1.5; stroke-linecap: square"/>
    </g>
    <g id="text_23">
     <text style="font: 10px 'DejaVu Sans', 'Bitstream Vera Sans', 'Computer Modern Sans Serif', 'Lucida Grande', 'Verdana', 'Geneva', 'Lucid', 'Arial', 'Helvetica', 'Avant Garde', sans-serif; text-anchor: start" x="390.044219" y="153.856688" transform="rotate(-0 390.044219 153.856688)">4</text>
    </g>
    <g id="line2d_29">
     <path d="M 362.044219 165.034813 
L 372.044219 165.034813 
L 372.044219 165.034813 
L 382.044219 165.034813 
L 382.044219 165.034813 
" style="fill: none; stroke: #1d91c0; stroke-width: 1.5; stroke-linecap: square"/>
    </g>
    <g id="text_24">
     <text style="font: 10px 'DejaVu Sans', 'Bitstream Vera Sans', 'Computer Modern Sans Serif', 'Lucida Grande', 'Verdana', 'Geneva', 'Lucid', 'Arial', 'Helvetica', 'Avant Garde', sans-serif; text-anchor: start" x="390.044219" y="168.534813" transform="rotate(-0 390.044219 168.534813)">5</text>
    </g>
    <g id="line2d_30">
     <path d="M 362.044219 179.712938 
L 372.044219 179.712938 
L 372.044219 179.712938 
L 382.044219 179.712938 
L 382.044219 179.712938 
" style="fill: none; stroke: #225ea8; stroke-width: 1.5; stroke-linecap: square"/>
    </g>
    <g id="text_25">
     <text style="font: 10px 'DejaVu Sans', 'Bitstream Vera Sans', 'Computer Modern Sans Serif', 'Lucida Grande', 'Verdana', 'Geneva', 'Lucid', 'Arial', 'Helvetica', 'Avant Garde', sans-serif; text-anchor: start" x="390.044219" y="183.212938" transform="rotate(-0 390.044219 183.212938)">6</text>
    </g>
    <g id="line2d_31">
     <path d="M 362.044219 194.391063 
L 372.044219 194.391063 
L 372.044219 194.391063 
L 382.044219 194.391063 
L 382.044219 194.391063 
" style="fill: none; stroke: #0c2c84; stroke-width: 1.5; stroke-linecap: square"/>
    </g>
    <g id="text_26">
     <text style="font: 10px 'DejaVu Sans', 'Bitstream Vera Sans', 'Computer Modern Sans Serif', 'Lucida Grande', 'Verdana', 'Geneva', 'Lucid', 'Arial', 'Helvetica', 'Avant Garde', sans-serif; text-anchor: start" x="390.044219" y="197.891063" transform="rotate(-0 390.044219 197.891063)">7</text>
    </g>
   </g>
  </g>
 </g>
 <defs>
  <clipPath id="pb6acd8f678">
   <rect x="57.6" y="41.472" width="357.12" height="266.112"/>
  </clipPath>
 </defs>
</svg>
